<svg version="1.1"  class="object" id="monthWheel" xmlns="http://www.w3.org/2000/svg" xmlns:xlink="http://www.w3.org/1999/xlink" x="0px" y="0px"
	 viewBox="0 0 1600 1600" style="enable-background:new 0 0 1600 1600;" xml:space="preserve">
<style type="text/css">
	#monthWheel .st0{fill:none;stroke:#FFFFFF;stroke-width:1.5;stroke-miterlimit:10;}
	#monthWheel .st1{fill:none;stroke:#000000;stroke-width:3;stroke-miterlimit:10;}
	#monthWheel .st2{fill:none;stroke:#868686;stroke-width:1.5;stroke-miterlimit:10;}
	#monthWheel .st3{fill:#6F6F6E;stroke:#868686;stroke-width:1.5;stroke-miterlimit:10;}
	#monthWheel .st4{fill:none;stroke:#FFFFFF;stroke-width:3;stroke-miterlimit:10;}
</style>
<g>
	<g>
		<path d="M1596.14,742.19l0.22,3.58l-8.52,3.69c-1.11,0.46-2.29,0.9-3.43,1.36l0.01,0.11c1.19,0.32,2.41,0.58,3.57,0.91l8.91,2.55
			l0.22,3.58l-17.84,1.1l-0.18-2.9l8.16-0.5c1.65-0.1,4.04,0,5.7,0.05l-0.01-0.11l-4.24-1.18l-8.19-2.44l-0.12-1.88l7.83-3.44
			l4.06-1.67l-0.01-0.11c-1.64,0.25-4,0.65-5.65,0.75l-8.16,0.5l-0.18-2.85L1596.14,742.19z"/>
		<path d="M1583.03,762.39c2.87-0.12,4.46,2.21,5.27,7.69c1.44-0.1,2.62-0.73,2.55-2.54c-0.05-1.33-0.7-2.57-1.47-3.72l2.05-1.24
			c0.99,1.44,1.89,3.31,1.98,5.44c0.13,3.35-1.86,5.08-5.6,5.23l-7.94,0.32l-0.1-2.58l1.48-0.3v-0.09
			c-1.08-1.16-1.92-2.51-1.98-4.09C1579.16,764.16,1580.69,762.48,1583.03,762.39z M1583.33,770.28l3.01-0.12
			c-0.6-3.62-1.6-4.79-2.96-4.74c-1.19,0.05-1.67,0.88-1.63,2C1581.81,768.51,1582.38,769.32,1583.33,770.28z"/>
		<path d="M1593.39,776.94l0.06,2.58l-2.39,0.3v0.09c1.77,0.91,2.78,2.31,2.82,3.75c0.02,0.68-0.06,1.12-0.23,1.53l-2.75-0.48
			c0.12-0.47,0.2-0.83,0.18-1.38c-0.03-1.07-0.79-2.34-2.86-3.1l-8.19,0.2l-0.08-3.15L1593.39,776.94z"/>
		<path d="M1586.84,786.42c4.47-0.09,7.12,3.01,7.19,6.59c0.03,1.7-0.6,2.96-1.43,3.96l-2.08-1.49c0.61-0.72,0.96-1.41,0.94-2.25
			c-0.04-2.17-1.87-3.63-4.56-3.57s-4.43,1.57-4.39,3.65c0.02,1.05,0.55,2,1.22,2.75l-2.05,1.32c-1.14-1.23-1.71-2.82-1.74-4.35
			C1579.87,789.37,1582.39,786.51,1586.84,786.42z"/>
		<path d="M1599.64,800.16l-0.04,3.15l-5-0.06l-2.59-0.16c1.05,1.14,2,2.49,1.98,4.32c-0.03,2.88-2,4.11-5.38,4.07l-8.42-0.1
			l0.04-3.15l8.01,0.1c2.21,0.03,3.05-0.6,3.06-2.05c0.01-1.18-0.56-1.96-1.64-3.08l-9.38-0.11l0.04-3.15L1599.64,800.16z"/>
		<path d="M1511.8,1161.48l-1.69,3.31l-18.57-2.96l1.53-2.99l9.71,1.91c1.94,0.36,4,0.82,5.98,1.24l0.05-0.1
			c-1.54-1.34-3.1-2.73-4.52-4.1l-7.22-6.78l1.47-2.88L1511.8,1161.48z M1503.5,1154.55l-3.84,7.49l-2.21-1.13l3.84-7.49
			L1503.5,1154.55z"/>
		<path d="M1502.5,1169.82l-1.22,2.27l-1.38-0.47l-0.04,0.08c0.32,1.46,0.34,3.1-0.36,4.4c-1.59,2.96-4.87,3.38-8.52,1.42
			c-4.05-2.17-5.09-5.85-3.68-8.48c0.56-1.05,1.59-1.83,2.94-2.35l-2.01-0.97l-3.73-2l1.49-2.78L1502.5,1169.82z M1492.48,1174.65
			c2.36,1.27,4.17,1.25,5.14-0.55c0.46-0.86,0.46-1.9,0.06-3.3l-5.51-2.96c-1.18,0.46-1.89,1.16-2.25,1.84
			C1489.06,1171.27,1489.8,1173.22,1492.48,1174.65z"/>
		<path d="M1495.08,1183.49l-1.26,2.25l-2.21-0.96l-0.04,0.08c1.06,1.69,1.22,3.4,0.52,4.66c-0.33,0.6-0.62,0.93-0.98,1.19
			l-2.12-1.81c0.34-0.35,0.59-0.61,0.86-1.1c0.52-0.94,0.51-2.42-0.88-4.12l-7.15-3.99l1.53-2.75L1495.08,1183.49z"/>
		<path d="M1490.05,1192.46l-1.57,2.73l-11.65-6.67l1.57-2.73L1490.05,1192.46z M1493.82,1194.21c0.92,0.53,1.13,1.61,0.58,2.57
			c-0.55,0.97-1.59,1.33-2.51,0.8c-0.9-0.52-1.13-1.61-0.58-2.58S1492.92,1193.69,1493.82,1194.21z"/>
		<path d="M1477.83,1193.71l13.68,8l-1.59,2.72l-13.82-8.09c-0.67-0.39-1.08-0.23-1.25,0.06c-0.07,0.12-0.13,0.22-0.2,0.45
			l-2.23-0.85c0.06-0.41,0.22-0.92,0.6-1.57C1474.15,1192.51,1475.81,1192.53,1477.83,1193.71z"/>
		<path d="M1234.16,1469.92l-3.03,1.92l-7.35-5.68c-0.94-0.75-1.89-1.57-2.85-2.35l-0.09,0.06c0.29,1.2,0.65,2.4,0.93,3.57
			l2.07,9.03l-3.03,1.92l-9.58-15.09l2.46-1.56l4.38,6.9c0.88,1.39,1.95,3.54,2.71,5.02l0.09-0.06l-1.01-4.28l-1.82-8.36l1.59-1.01
			l6.8,5.2l3.43,2.75l0.09-0.06c-1.02-1.32-2.5-3.19-3.39-4.58l-4.38-6.9l2.41-1.53L1234.16,1469.92z"/>
		<path d="M1210.15,1468.19c1.49,2.46,0.23,4.98-4.18,8.33c0.78,1.21,1.9,1.94,3.46,1c1.14-0.69,1.91-1.86,2.54-3.08l2.08,1.19
			c-0.78,1.56-1.98,3.25-3.8,4.36c-2.87,1.74-5.35,0.83-7.29-2.37l-4.12-6.8l2.21-1.33l0.98,1.15l0.07-0.05
			c0.5-1.5,1.27-2.89,2.62-3.71C1206.73,1465.67,1208.94,1466.19,1210.15,1468.19z M1203.39,1472.27l1.56,2.58
			c2.88-2.28,3.42-3.72,2.72-4.88c-0.61-1.01-1.58-1.04-2.54-0.46C1204.2,1470.08,1203.77,1470.97,1203.39,1472.27z"/>
		<path d="M1193.74,1467.76l0.72,2.4c-0.26,0.06-0.65,0.16-0.92,0.32c-1.22,0.71-1.45,1.95-1.16,3.34l0.21,0.86l11.22,8.81
			l-2.76,1.6l-5.31-4.52c-0.95-0.83-1.94-1.78-2.92-2.69l-0.09,0.05c0.33,1.25,0.7,2.56,1.02,3.8l1.58,6.69l-2.63,1.53l-2.85-14.57
			c-0.55-3.17-0.28-5.5,2.26-6.97C1192.73,1468.03,1193.23,1467.86,1193.74,1467.76z"/>
		<path d="M849.69,1581.48l-2.09,1.72c-0.8-1.28-1.8-1.79-2.89-1.74c-1.67,0.09-2.48,1.05-2.34,3.59l0.66,11.97l-3.17,0.17
			l-0.67-12.25c-0.18-3.26,1.28-6.02,5-6.22C846.69,1578.59,848.45,1579.52,849.69,1581.48z"/>
		<path d="M835.12,1584.54l0.31,8.41l-3.15,0.11l-0.29-8.01c-0.08-2.21-0.75-3.01-2.2-2.96c-1.18,0.04-1.94,0.62-2.9,1.97l0.34,9.19
			l-3.15,0.12l-0.49-13.41l2.58-0.09l0.31,1.97h0.09c1.13-1.44,2.4-2.39,4.23-2.46C833.67,1579.26,835,1581.16,835.12,1584.54z"/>
		<path d="M819.96,1593.47l-2.58,0.05l-0.28-1.81h-0.09c-1.18,1.19-2.53,2.2-4.36,2.23c-2.88,0.06-4.17-1.86-4.24-5.25l-0.17-8.42
			l3.15-0.06l0.16,8.01c0.04,2.21,0.7,3.03,2.15,3c1.18-0.02,1.95-0.62,3.03-1.73l-0.19-9.38l3.15-0.06L819.96,1593.47z"/>
		<path d="M805.32,1587.06c-0.05,4.36-3.11,7.02-6.27,6.98c-3.63-0.04-5.51-2.69-5.47-6.44c0.01-0.6,0.08-1.2,0.16-1.53l8.52,0.1
			c-0.23-2.38-1.75-3.76-3.91-3.79c-1.15-0.01-2.14,0.33-3.13,0.94l-1.05-1.97c1.29-0.85,2.91-1.42,4.62-1.4
			C802.5,1580,805.38,1582.63,805.32,1587.06z M796.3,1588.24c-0.02,2.07,0.88,3.33,2.72,3.36c1.56,0.02,2.96-1.13,3.25-3.29
			L796.3,1588.24z"/>
		<path d="M450.34,1500.81l-2.67,0.43c-0.05-1.51-0.65-2.46-1.62-2.95c-1.49-0.76-2.67-0.34-3.83,1.92l-5.45,10.68l-2.82-1.44
			l5.57-10.93c1.48-2.91,4.13-4.56,7.45-2.87C449.19,1496.81,450.24,1498.5,450.34,1500.81z"/>
		<path d="M436.19,1496.14l-3.96,7.43l-2.78-1.48l3.77-7.07c1.04-1.95,0.87-2.98-0.41-3.66c-1.04-0.56-1.98-0.44-3.5,0.24
			l-4.32,8.11l-2.78-1.48l6.31-11.85l2.28,1.21l-0.72,1.86l0.08,0.04c1.7-0.68,3.27-0.87,4.9,0
			C437.59,1490.84,437.79,1493.15,436.19,1496.14z"/>
		<path d="M423.41,1487.51l-7.66,13.88l-2.76-1.52l7.74-14.03c0.38-0.68,0.2-1.09-0.09-1.25c-0.12-0.07-0.22-0.12-0.46-0.19
			l0.79-2.25c0.41,0.05,0.93,0.2,1.59,0.56C424.52,1483.8,424.54,1485.46,423.41,1487.51z"/>
		<path d="M422,1476.8l-1.71,1.83c-0.19-0.19-0.47-0.48-0.74-0.64c-1.23-0.7-2.41-0.27-3.47,0.68l-0.64,0.61l-1.97,14.14l-2.77-1.58
			l1.24-6.87c0.24-1.24,0.56-2.58,0.85-3.88l-0.1-0.05c-0.91,0.92-1.86,1.9-2.77,2.79l-5,4.73l-2.64-1.5l11.17-9.8
			c2.47-2.08,4.62-3.01,7.17-1.56C421.25,1476.07,421.65,1476.42,422,1476.8z"/>
		<path d="M131.65,1236.5l-2.03-3.12l11.8-14.64l1.83,2.81l-6.48,7.47c-1.27,1.51-2.7,3.06-4.06,4.57l0.06,0.09
			c1.93-0.67,3.91-1.33,5.8-1.89l9.47-2.89l1.77,2.71L131.65,1236.5z M141.79,1232.74l-4.59-7.05l2.08-1.36l4.59,7.05
			L141.79,1232.74z"/>
		<path d="M136.28,1219.96l-7.14,4.46l-1.67-2.67l6.8-4.24c1.87-1.17,2.24-2.15,1.47-3.38c-0.63-1-1.5-1.37-3.15-1.54l-7.8,4.87
			l-1.67-2.67l11.39-7.11l1.37,2.19l-1.55,1.25l0.05,0.07c1.81,0.26,3.27,0.88,4.24,2.44
			C140.14,1216.06,139.16,1218.16,136.28,1219.96z"/>
		<path d="M135.06,1203.89c-0.97,0.58-2.18,0.49-3.45-0.19l-0.09,0.06c-0.03,0.82-0.37,1.64-1.3,2.19c-0.89,0.53-2.04,0.4-2.91,0.01
			l-0.09,0.06c-0.11,1.14-0.77,2.53-2.13,3.34c-2.65,1.58-5.42,0.34-6.86-2.08c-0.38-0.64-0.63-1.31-0.74-1.88l-2.46-4.12l2.01-1.2
			l1.26,2.1c0.21-0.63,0.75-1.34,1.54-1.81c2.56-1.53,5.09-0.41,6.55,2.03c0.29,0.49,0.52,1.1,0.63,1.74
			c0.5,0.17,0.92,0.21,1.44-0.1c0.65-0.39,0.76-1.09-0.08-2.49l-1.23-2.05c-1.65-2.75-1.67-4.73,0.32-5.92
			c2.27-1.36,5.49-0.05,7.74,3.71C136.84,1200.05,137.08,1202.68,135.06,1203.89z M121.16,1202.8c-1.44,0.86-1.75,2.23-1.07,3.36
			c0.67,1.13,2.01,1.51,3.47,0.64c1.46-0.88,1.78-2.28,1.12-3.38C124.01,1202.31,122.62,1201.92,121.16,1202.8z M129.46,1195.93
			c-0.89,0.53-0.73,1.4,0.06,2.72l0.95,1.58c0.37,0.62,0.62,1.14,0.77,1.65c0.84,0.34,1.52,0.3,2.05-0.02
			c1.05-0.63,0.99-2.12-0.1-3.93C132.08,1196.08,130.45,1195.33,129.46,1195.93z"/>
		<path d="M121,1194.82l-7.3,4.19l-1.57-2.73l6.95-3.98c1.92-1.1,2.32-2.06,1.6-3.32c-0.59-1.02-1.45-1.43-3.09-1.66l-7.98,4.57
			l-1.57-2.73l11.65-6.68l1.28,2.24l-1.6,1.19l0.04,0.08c1.8,0.33,3.24,1.01,4.15,2.6C125,1191.08,123.94,1193.14,121,1194.82z"/>
		<path d="M117.09,1180.97l-2.46-0.32c0.24-1.49,0.18-2.78-0.47-3.97c-0.71-1.28-1.64-1.56-2.45-1.11
			c-0.99,0.54-0.73,2.06-0.51,3.58c0.27,1.86,0.35,4.11-1.61,5.19c-2.04,1.12-4.42,0.29-5.87-2.35c-0.9-1.64-0.96-3.32-0.74-4.68
			l2.39,0.33c-0.15,1.16-0.12,2.22,0.39,3.14c0.65,1.18,1.52,1.43,2.26,1.03c0.93-0.51,0.63-1.89,0.4-3.43
			c-0.28-1.92-0.5-4.12,1.7-5.33c2.02-1.11,4.53-0.41,6.16,2.56C117.16,1177.23,117.4,1179.3,117.09,1180.97z"/>
		<path d="M107.96,1170.5l-5.65,3.01l0.9,1.69l-2.08,1.11l-1.1-1.77l-3.41,1.39l-1.23-2.31l3.23-1.72l-1.61-3.02l2.21-1.18
			l1.61,3.02l5.64-3c1.39-0.74,1.79-1.65,1.19-2.79c-0.22-0.41-0.61-0.82-0.93-1.09l1.79-1.56c0.56,0.53,1.22,1.24,1.72,2.19
			C111.71,1167.2,110.52,1169.14,107.96,1170.5z"/>
		<path d="M20.58,871.05l-2.32-1.66c1.11-1.38,1.79-3.15,1.65-4.81c-0.16-2-1.16-3.03-2.55-2.92c-1.47,0.12-1.84,1.31-2.39,2.98
			l-0.86,2.52c-0.59,1.81-1.82,3.78-4.43,3.99c-2.84,0.23-5.23-2.09-5.51-5.57c-0.17-2.08,0.52-4.17,1.82-5.68l2.14,1.46
			c-0.87,1.21-1.34,2.47-1.21,3.99c0.14,1.69,1.02,2.73,2.32,2.62c1.4-0.12,1.81-1.51,2.29-3.04l0.81-2.48
			c0.71-2.19,1.93-3.79,4.51-4c2.89-0.24,5.49,1.96,5.82,5.96C22.86,866.82,22.1,869.22,20.58,871.05z"/>
		<path d="M14.98,856.44c-4.35,0.28-7.23-2.58-7.43-5.73c-0.23-3.62,2.27-5.7,6.01-5.94c0.6-0.04,1.2-0.01,1.54,0.04l0.54,8.5
			c2.36-0.41,3.62-2.03,3.48-4.19c-0.07-1.15-0.5-2.1-1.17-3.05l1.88-1.19c0.94,1.22,1.63,2.8,1.74,4.5
			C21.82,853.09,19.4,856.16,14.98,856.44z M13.13,847.53c-2.06,0.13-3.26,1.13-3.14,2.96c0.1,1.56,1.35,2.86,3.52,3L13.13,847.53z"
			/>
		<path d="M7.36,841.99l-0.12-2.58l1.42-0.3v-0.09c-1.02-1.09-1.87-2.49-1.94-3.96c-0.15-3.35,2.45-5.4,6.59-5.58
			c4.59-0.21,7.37,2.42,7.5,5.4c0.05,1.19-0.43,2.38-1.32,3.52l2.22-0.2l4.23-0.19l0.14,3.15L7.36,841.99z M13.48,832.7
			c-2.68,0.12-4.22,1.07-4.13,3.11c0.04,0.97,0.58,1.87,1.64,2.86l6.25-0.28c0.78-1,1.03-1.96,0.99-2.74
			C18.16,833.86,16.52,832.57,13.48,832.7z"/>
		<path d="M15.59,825.72L9.2,825.9l0.06,1.91l-2.36,0.07l-0.2-2.07l-3.67-0.26l-0.08-2.61l3.66-0.11l-0.1-3.42l2.5-0.07l0.1,3.42
			l6.39-0.19c1.58-0.05,2.34-0.68,2.3-1.97c-0.01-0.46-0.18-1-0.35-1.39l2.3-0.6c0.26,0.72,0.54,1.65,0.57,2.73
			C20.41,824.42,18.49,825.63,15.59,825.72z"/>
		<path d="M13.21,817.25c-4.36,0.09-7.11-2.88-7.18-6.04c-0.07-3.63,2.51-5.6,6.26-5.67c0.6-0.01,1.2,0.04,1.53,0.1l0.17,8.52
			c2.38-0.31,3.7-1.87,3.66-4.03c-0.02-1.15-0.4-2.12-1.04-3.1l1.93-1.11c0.89,1.26,1.51,2.87,1.55,4.57
			C20.18,814.19,17.64,817.16,13.21,817.25z M11.74,808.26c-2.07,0.04-3.3,0.99-3.27,2.82c0.03,1.56,1.23,2.92,3.39,3.15
			L11.74,808.26z"/>
		<path d="M6.2,802.37l0.03-2.58l1.83-0.22v-0.09c-1.17-1.15-2.13-2.46-2.11-4.15c0.02-1.97,0.93-3.08,2.45-3.68
			c-1.35-1.3-2.37-2.64-2.35-4.35c0.03-2.83,2-4.12,5.38-4.08l8.42,0.1l-0.04,3.15l-8.01-0.1c-2.21-0.03-3.05,0.62-3.06,2.03
			c-0.01,0.85,0.53,1.78,1.64,2.83l9.38,0.11l-0.04,3.15l-8.01-0.1c-2.21-0.03-3.05,0.62-3.06,2.03c-0.01,0.83,0.53,1.78,1.64,2.83
			l9.38,0.11l-0.04,3.15L6.2,802.37z"/>
		<path d="M18.63,776.7v0.09l1.4,0.32l-0.08,2.48l-19.3-0.63l0.1-3.15l4.99,0.16l2.23,0.16c-0.95-1.15-1.59-2.55-1.55-3.93
			c0.11-3.35,2.86-5.21,6.99-5.07c4.61,0.15,7.17,2.98,7.07,5.96C20.45,774.32,19.78,775.61,18.63,776.7z M13.36,770.37
			c-2.68-0.09-4.29,0.73-4.36,2.78c-0.03,0.97,0.43,1.93,1.41,2.98l6.25,0.2c0.85-0.91,1.18-1.88,1.2-2.65
			C17.93,771.88,16.4,770.47,13.36,770.37z"/>
		<path d="M13.76,764.83c-4.36-0.22-6.89-3.38-6.73-6.54c0.19-3.62,2.9-5.4,6.65-5.21c0.6,0.03,1.2,0.13,1.52,0.21l-0.43,8.51
			c2.39-0.14,3.82-1.6,3.94-3.76c0.06-1.15-0.25-2.15-0.81-3.16l2.01-0.97c0.8,1.32,1.3,2.97,1.22,4.67
			C20.93,762.28,18.18,765.05,13.76,764.83z M12.93,755.76c-2.06-0.11-3.37,0.75-3.46,2.58c-0.08,1.56,1.02,3,3.15,3.38
			L12.93,755.76z"/>
		<path d="M7.85,749.64l0.17-2.58l2.41-0.08l0.01-0.09c-1.68-1.07-2.56-2.55-2.46-3.99c0.05-0.68,0.16-1.11,0.37-1.5l2.69,0.73
			c-0.16,0.46-0.27,0.8-0.31,1.36c-0.07,1.07,0.58,2.41,2.56,3.35l8.17,0.54l-0.21,3.14L7.85,749.64z"/>
		<path d="M92.08,450.46c-5.16-2.62-6.74-7.04-4.63-11.19s6.62-5.48,11.76-2.87c5.16,2.62,6.87,7.1,4.76,11.25
			C101.87,451.81,97.24,453.08,92.08,450.46z M97.74,439.31c-3.58-1.81-6.56-1.29-7.83,1.21c-1.27,2.51,0.07,5.22,3.65,7.04
			s6.69,1.36,7.96-1.15C102.79,443.91,101.32,441.13,97.74,439.31z"/>
		<path d="M102.43,435.27c-3.95-2.1-4.74-6.1-3.06-9.25c0.8-1.51,1.97-2.3,3.17-2.75l1.08,2.31c-0.88,0.33-1.52,0.76-1.92,1.51
			c-1.02,1.91-0.14,4.07,2.24,5.34c2.37,1.26,4.63,0.79,5.61-1.05c0.49-0.93,0.49-2.02,0.28-2.99l2.43-0.15
			c0.39,1.63,0.12,3.29-0.6,4.64C109.96,436.09,106.36,437.36,102.43,435.27z"/>
		<path d="M110.96,423.98l-5.6-3.09l-0.92,1.68l-2.07-1.14l0.88-1.89l-3.03-2.09l1.26-2.29l3.21,1.77l1.65-3l2.19,1.21l-1.65,3
			l5.6,3.08c1.38,0.76,2.36,0.6,2.98-0.53c0.22-0.4,0.35-0.95,0.41-1.37l2.29,0.65c-0.14,0.76-0.37,1.7-0.89,2.64
			C115.76,425.32,113.5,425.38,110.96,423.98z"/>
		<path d="M113.18,415.44c-3.88-2.22-4.61-6.14-2.95-9.04s5.41-4.26,9.29-2.04c3.86,2.21,4.59,6.13,2.93,9.03
			C120.79,416.29,117.04,417.65,113.18,415.44z M117.91,407.17c-2.33-1.34-4.48-1.2-5.45,0.51c-0.98,1.71-0.01,3.62,2.33,4.96
			c2.33,1.34,4.46,1.19,5.44-0.52C121.2,410.4,120.25,408.5,117.91,407.17z"/>
		<path d="M127.13,401.89l-0.04,0.07l1.07,0.96l-1.27,2.13l-16.57-9.91l1.62-2.7l4.29,2.56l1.87,1.22c-0.27-1.47-0.15-3,0.55-4.18
			c1.72-2.88,5.03-3.16,8.57-1.05c3.95,2.37,4.82,6.08,3.29,8.65C129.87,400.69,128.66,401.5,127.13,401.89z M125.59,393.8
			c-2.3-1.38-4.11-1.44-5.16,0.32c-0.5,0.83-0.56,1.89-0.21,3.29l5.37,3.21c1.19-0.39,1.94-1.07,2.34-1.73
			C128.85,397.34,128.2,395.36,125.59,393.8z"/>
		<path d="M128.6,389.17c-3.7-2.31-4.38-6.3-2.71-8.98c1.92-3.08,5.16-3.32,8.34-1.33c0.51,0.32,0.99,0.69,1.23,0.93l-4.51,7.23
			c2.16,1.04,4.12,0.46,5.27-1.38c0.61-0.97,0.82-2,0.82-3.16l2.23,0.13c0.06,1.54-0.3,3.23-1.2,4.68
			C136.11,390.42,132.36,391.51,128.6,389.17z M132.27,380.84c-1.75-1.09-3.31-0.98-4.28,0.58c-0.83,1.33-0.56,3.11,1.12,4.49
			L132.27,380.84z"/>
		<path d="M130.82,373l1.4-2.17l2.14,1.09l0.05-0.07c-0.95-1.75-1-3.47-0.22-4.68c0.37-0.57,0.68-0.89,1.05-1.13l2,1.94
			c-0.36,0.32-0.63,0.57-0.93,1.04c-0.58,0.9-0.66,2.38,0.62,4.17l6.88,4.44l-1.71,2.65L130.82,373z"/>
		<path d="M354.22,137.8l2.71-1.8l10.18,5.31l3.65,2.16l0.09-0.06c-1.15-1.46-2.61-3.2-3.71-4.86l-4.29-6.47l2.51-1.67l9.87,14.9
			l-2.71,1.8l-10.19-5.32l-3.64-2.15l-0.09,0.06c1.17,1.49,2.57,3.15,3.67,4.81l4.32,6.52l-2.51,1.67L354.22,137.8z"/>
		<path d="M374.42,137.86c-2.39-3.78-1.2-7.58,1.63-9.37c2.83-1.79,6.78-1.23,9.17,2.55c2.38,3.76,1.19,7.57-1.64,9.35
			C380.75,142.17,376.8,141.62,374.42,137.86z M382.48,132.76c-1.44-2.27-3.39-3.16-5.06-2.11c-1.66,1.05-1.7,3.2-0.27,5.47
			c1.44,2.27,3.38,3.14,5.05,2.09C383.87,137.16,383.92,135.03,382.48,132.76z"/>
		<path d="M383,124.5l2.73-1.66l5.44,4.85c1,0.94,2.06,1.91,3.07,2.87l0.09-0.06c-0.38-1.34-0.76-2.72-1.13-4.05l-1.79-7.06
			l2.6-1.58l3.07,13.84l-3.11,1.89L383,124.5z"/>
		<path d="M398.76,122.81c-2.2-3.77-0.94-7.62,1.79-9.21c3.14-1.83,6.11-0.53,8,2.71c0.3,0.52,0.55,1.07,0.65,1.39l-7.36,4.3
			c1.43,1.93,3.43,2.33,5.3,1.23c0.99-0.58,1.66-1.39,2.2-2.41l1.91,1.15c-0.67,1.39-1.77,2.72-3.24,3.58
			C404.82,127.41,400.99,126.63,398.76,122.81z M405.89,117.15c-1.04-1.78-2.47-2.41-4.06-1.48c-1.35,0.79-1.95,2.49-1.1,4.49
			L405.89,117.15z"/>
		<path d="M408.28,109.46l2.26-1.25l1.1,1.49l0.08-0.04c0.42-1.59,1.09-3.07,2.56-3.88c1.72-0.95,3.14-0.71,4.41,0.31
			c0.46-1.82,1.12-3.37,2.61-4.19c2.48-1.37,4.57-0.3,6.21,2.66l4.07,7.37l-2.75,1.52l-3.88-7.01c-1.07-1.93-2.04-2.34-3.28-1.66
			c-0.75,0.41-1.28,1.33-1.65,2.82l4.54,8.21l-2.75,1.52l-3.88-7.01c-1.07-1.93-2.04-2.34-3.28-1.66c-0.73,0.4-1.29,1.34-1.65,2.82
			l4.54,8.21l-2.75,1.52L408.28,109.46z"/>
		<path d="M436.76,107.63l-0.08,0.04l0.41,1.38l-2.2,1.15l-8.92-17.12l2.79-1.46l2.31,4.43l0.95,2.02c0.54-1.39,1.44-2.64,2.66-3.27
			c2.98-1.55,5.94-0.06,7.85,3.6c2.13,4.09,0.92,7.71-1.72,9.09C439.72,108.05,438.27,108.1,436.76,107.63z M439.69,99.93
			c-1.24-2.38-2.75-3.38-4.56-2.43c-0.86,0.45-1.47,1.32-1.9,2.69l2.89,5.55c1.21,0.29,2.21,0.1,2.9-0.25
			C440.61,104.66,441.09,102.63,439.69,99.93z"/>
		<path d="M444.7,97.56c-1.94-3.91-0.43-7.66,2.4-9.07c3.25-1.62,6.13-0.12,7.8,3.24c0.27,0.54,0.48,1.11,0.56,1.43l-7.63,3.8
			c1.3,2.02,3.27,2.55,5.21,1.58c1.03-0.51,1.75-1.27,2.36-2.26l1.83,1.27c-0.76,1.34-1.95,2.59-3.47,3.35
			C450.43,102.56,446.67,101.53,444.7,97.56z M452.19,92.4c-0.92-1.85-2.3-2.57-3.95-1.75c-1.4,0.7-2.11,2.36-1.4,4.41L452.19,92.4z
			"/>
		<path d="M455.05,84.96l2.33-1.11l1.25,2.06l0.08-0.04c0.11-1.99,0.97-3.48,2.27-4.1c0.62-0.29,1.04-0.4,1.49-0.41l0.69,2.7
			c-0.48,0.08-0.83,0.16-1.34,0.4c-0.97,0.46-1.81,1.68-1.66,3.87l3.53,7.39l-2.84,1.36L455.05,84.96z"/>
		<path d="M746.57,3.57l4.76-0.28c5.47-0.32,8.87,2.44,9.22,8.34c0.35,5.91-2.71,9.18-8.01,9.49l-4.92,0.29L746.57,3.57z
			 M752.01,18.59c3.59-0.21,5.54-2.37,5.28-6.76c-0.26-4.39-2.43-6.17-6.02-5.96l-1.39,0.08l0.74,12.72L752.01,18.59z"/>
		<path d="M763.13,13.84c-0.17-4.36,2.75-7.16,5.91-7.29c3.63-0.14,5.64,2.41,5.79,6.15c0.02,0.6-0.02,1.2-0.08,1.53l-8.52,0.33
			c0.35,2.37,1.94,3.67,4.1,3.58c1.15-0.04,2.12-0.44,3.08-1.09l1.15,1.91c-1.24,0.91-2.84,1.57-4.54,1.63
			C766.31,20.75,763.3,18.26,763.13,13.84z M772.08,12.2c-0.08-2.06-1.05-3.29-2.88-3.21c-1.56,0.06-2.89,1.28-3.08,3.45
			L772.08,12.2z"/>
		<path d="M777.03,13.32c-0.1-4.47,3-7.12,6.58-7.2c1.7-0.04,2.97,0.59,3.96,1.42l-1.48,2.08c-0.72-0.61-1.41-0.95-2.25-0.93
			c-2.16,0.05-3.62,1.87-3.56,4.56s1.57,4.43,3.66,4.38c1.05-0.02,2-0.56,2.75-1.22l1.32,2.05c-1.23,1.14-2.82,1.71-4.35,1.75
			C779.99,20.29,777.13,17.77,777.03,13.32z"/>
		<path d="M789.65,13.14c-0.09-4.36,2.88-7.11,6.04-7.18c3.63-0.07,5.59,2.51,5.67,6.26c0.01,0.6-0.04,1.2-0.11,1.53l-8.52,0.17
			c0.31,2.38,1.87,3.7,4.03,3.66c1.15-0.02,2.12-0.4,3.1-1.04l1.11,1.93c-1.26,0.89-2.87,1.51-4.57,1.55
			C792.7,20.11,789.74,17.57,789.65,13.14z M798.63,11.67c-0.04-2.07-0.99-3.3-2.82-3.27c-1.56,0.03-2.92,1.23-3.15,3.39
			L798.63,11.67z"/>
		<path d="M804.6,6.24l2.58,0.04l0.21,1.84h0.09c1.16-1.17,2.48-2.12,4.16-2.09c1.97,0.03,3.07,0.95,3.66,2.47
			c1.31-1.34,2.66-2.36,4.36-2.33c2.83,0.05,4.11,2.02,4.05,5.41L823.56,20l-3.15-0.06l0.14-8.01c0.04-2.21-0.6-3.05-2.01-3.08
			c-0.85-0.02-1.78,0.52-2.84,1.62l-0.16,9.38l-3.15-0.05l0.14-8.01c0.04-2.21-0.6-3.05-2.01-3.08c-0.83-0.01-1.78,0.52-2.84,1.62
			l-0.17,9.38l-3.15-0.06L804.6,6.24z"/>
		<path d="M830.17,18.87h-0.09l-0.33,1.4l-2.48-0.1l0.8-19.29L831.22,1l-0.21,4.99l-0.18,2.22c1.16-0.94,2.57-1.57,3.94-1.51
			c3.35,0.14,5.18,2.91,5.01,7.03c-0.19,4.6-3.04,7.14-6.02,7.02C832.53,20.7,831.25,20.03,830.17,18.87z M836.55,13.65
			c0.11-2.68-0.7-4.3-2.74-4.38c-0.97-0.04-1.93,0.41-2.99,1.39l-0.26,6.25c0.91,0.86,1.86,1.19,2.64,1.23
			C834.99,18.2,836.42,16.69,836.55,13.65z"/>
		<path d="M842.08,14.09c0.26-4.36,3.44-6.86,6.6-6.67c3.62,0.22,5.37,2.95,5.15,6.7c-0.04,0.6-0.14,1.2-0.23,1.52l-8.5-0.51
			c0.12,2.4,1.57,3.84,3.73,3.97c1.15,0.07,2.15-0.23,3.17-0.78l0.95,2.02c-1.33,0.79-2.98,1.28-4.68,1.18
			C844.56,21.28,841.81,18.51,842.08,14.09z M851.15,13.34c0.12-2.06-0.72-3.37-2.55-3.48c-1.56-0.09-3.01,0.99-3.41,3.12
			L851.15,13.34z"/>
		<path d="M857.34,8.31l2.57,0.19l0.06,2.41l0.09,0.01c1.08-1.67,2.58-2.54,4.01-2.43c0.68,0.05,1.11,0.17,1.5,0.39l-0.75,2.69
			c-0.46-0.17-0.8-0.28-1.36-0.32c-1.07-0.08-2.41,0.55-3.37,2.53l-0.61,8.17l-3.14-0.24L857.34,8.31z"/>
		<path d="M1161.96,105.47l2.68-0.39c0.03,1.51,0.61,2.47,1.57,2.98c1.48,0.79,2.67,0.39,3.86-1.86l5.63-10.59l2.8,1.49l-5.76,10.83
			c-1.53,2.89-4.21,4.49-7.5,2.74C1163.04,109.5,1162.01,107.79,1161.96,105.47z"/>
		<path d="M1174.82,111.33c1.4-2.51,4.21-2.67,9.31-0.51c0.66-1.28,0.74-2.62-0.85-3.5c-1.17-0.65-2.56-0.73-3.94-0.67l0.01-2.4
			c1.74-0.1,3.81,0.1,5.67,1.14c2.93,1.63,3.37,4.24,1.56,7.5l-3.86,6.95l-2.25-1.25l0.51-1.42l-0.08-0.04
			c-1.55,0.31-3.14,0.33-4.52-0.44C1174.33,115.56,1173.68,113.38,1174.82,111.33z M1181.71,115.17l1.46-2.64
			c-3.41-1.37-4.93-1.12-5.59,0.06c-0.58,1.04-0.12,1.88,0.86,2.43C1179.41,115.56,1180.4,115.49,1181.71,115.17z"/>
		<path d="M1192.67,110.05l2.23,1.29l-0.7,1.69l0.08,0.04c1.63-0.41,3.3-0.57,4.89,0.36c2.49,1.44,2.6,3.76,0.9,6.69l-4.22,7.28
			l-2.72-1.58l4.02-6.93c1.11-1.91,0.98-2.95-0.28-3.68c-1.02-0.59-1.98-0.48-3.49-0.09l-4.71,8.12l-2.72-1.58L1192.67,110.05z"/>
		<path d="M1201.54,124.96l4.36-7.2l2.69,1.63l-4.15,6.85c-1.14,1.89-1.03,2.93,0.21,3.68c1.01,0.61,1.96,0.55,3.51-0.05l4.76-7.86
			l2.69,1.63l-6.96,11.48l-2.21-1.34l0.82-1.82l-0.07-0.05c-1.74,0.58-3.32,0.69-4.89-0.27
			C1199.85,130.18,1199.78,127.86,1201.54,124.96z"/>
		<path d="M1213.31,133.77c1.54-2.43,4.35-2.42,9.32,0.02c0.73-1.24,0.89-2.57-0.65-3.54c-1.13-0.71-2.51-0.88-3.89-0.9l0.14-2.39
			c1.74,0,3.79,0.32,5.6,1.45c2.84,1.79,3.13,4.42,1.13,7.58l-4.25,6.72l-2.18-1.38l0.59-1.39l-0.07-0.05
			c-1.57,0.23-3.15,0.16-4.49-0.69C1212.58,137.96,1212.06,135.75,1213.31,133.77z M1219.98,138l1.61-2.55
			c-3.32-1.56-4.86-1.4-5.58-0.25c-0.63,1-0.23,1.87,0.73,2.47C1217.66,138.25,1218.65,138.24,1219.98,138z"/>
		<path d="M1231.16,133.5l2.16,1.41l-1.11,2.14l0.07,0.05c1.76-0.94,3.48-0.98,4.68-0.19c0.57,0.37,0.89,0.68,1.12,1.06l-1.95,1.99
			c-0.32-0.37-0.57-0.63-1.03-0.94c-0.9-0.59-2.38-0.68-4.17,0.59l-4.48,6.85l-2.63-1.72L1231.16,133.5z"/>
		<path d="M1228.64,154.15l1.84-1.7c0.17,0.21,0.43,0.52,0.69,0.69c1.17,0.79,2.39,0.45,3.51-0.41l0.68-0.56l3.05-13.95l2.65,1.79
			l-1.76,6.75c-0.33,1.21-0.75,2.52-1.15,3.8l0.09,0.06c0.98-0.84,2-1.75,2.98-2.57l5.34-4.33l2.52,1.7l-11.88,8.91
			c-2.62,1.88-4.83,2.65-7.26,1C1229.33,154.94,1228.96,154.56,1228.64,154.15z"/>
		<path d="M1475.47,374.57l5.71,9.17l-2.26,1.41l-4.04-6.48l-4.3,2.68l3.43,5.51l-2.26,1.41l-3.44-5.51l-6.34,3.95l-1.68-2.69
			L1475.47,374.57z"/>
		<path d="M1472.75,391.37c3.74-2.24,7.61-1.02,9.23,1.69c1.86,3.12,0.59,6.1-2.62,8.03c-0.52,0.31-1.07,0.56-1.38,0.67l-4.38-7.31
			c-1.91,1.45-2.29,3.46-1.18,5.32c0.59,0.99,1.4,1.64,2.43,2.17l-1.13,1.92c-1.4-0.65-2.74-1.74-3.61-3.2
			C1468.21,397.47,1468.95,393.64,1472.75,391.37z M1478.48,398.43c1.77-1.06,2.38-2.49,1.44-4.07c-0.8-1.34-2.51-1.92-4.5-1.05
			L1478.48,398.43z"/>
		<path d="M1477.13,409.14l-0.04-0.08l-1.36,0.46l-1.24-2.15l16.74-9.61l1.57,2.73l-4.33,2.49l-1.98,1.03
			c1.41,0.48,2.69,1.33,3.38,2.53c1.67,2.91,0.3,5.93-3.28,7.99c-4,2.29-7.67,1.24-9.15-1.35
			C1476.84,412.12,1476.72,410.68,1477.13,409.14z M1484.94,411.76c2.32-1.33,3.26-2.88,2.24-4.65c-0.48-0.84-1.38-1.41-2.77-1.79
			l-5.42,3.11c-0.24,1.22-0.02,2.21,0.37,2.89C1480.26,412.87,1482.31,413.27,1484.94,411.76z"/>
		<path d="M1493.83,414.23l1.25,2.26l-1.98,1.37l0.04,0.08c1.99-0.01,3.53,0.77,4.23,2.02c0.33,0.6,0.46,1.02,0.5,1.46l-2.66,0.84
			c-0.11-0.48-0.21-0.82-0.47-1.31c-0.52-0.94-1.78-1.71-3.96-1.43l-7.17,3.96l-1.52-2.76L1493.83,414.23z"/>
		<path d="M1491.3,427.09l7.43-3.95l1.48,2.78l-7.08,3.76c-1.95,1.04-2.39,1.98-1.71,3.27c0.55,1.04,1.4,1.47,3.04,1.75l8.12-4.31
			l1.48,2.78l-11.85,6.29l-1.21-2.28l1.64-1.14l-0.04-0.08c-1.79-0.39-3.2-1.11-4.06-2.73
			C1487.18,430.7,1488.31,428.68,1491.3,427.09z"/>
		<path d="M1496.89,440.65c2.56-1.3,4.98,0.15,8,4.79c1.27-0.69,2.08-1.75,1.26-3.37c-0.6-1.19-1.71-2.04-2.89-2.77l1.35-1.98
			c1.5,0.9,3.1,2.22,4.06,4.12c1.52,2.99,0.42,5.4-2.91,7.09l-7.09,3.6l-1.17-2.3l1.22-0.89l-0.04-0.08
			c-1.46-0.61-2.79-1.48-3.5-2.89C1494.11,443.87,1494.8,441.71,1496.89,440.65z M1500.45,447.69l2.69-1.37
			c-2.06-3.04-3.46-3.69-4.66-3.08c-1.06,0.54-1.16,1.49-0.64,2.5C1498.33,446.72,1499.18,447.22,1500.45,447.69z"/>
		<path d="M1512.37,449.57l1.13,2.32l-2.05,1.27l0.04,0.08c1.99,0.09,3.49,0.94,4.12,2.23c0.3,0.61,0.41,1.04,0.42,1.49l-2.7,0.71
			c-0.09-0.48-0.16-0.83-0.41-1.33c-0.47-0.96-1.69-1.8-3.89-1.63l-7.36,3.59l-1.38-2.83L1512.37,449.57z"/>
		<path d="M1499.63,466.02l2.45-0.51c0.04,0.27,0.11,0.66,0.24,0.95c0.6,1.28,1.82,1.61,3.23,1.44l0.87-0.13l9.76-10.41l1.36,2.89
			l-4.97,4.89c-0.91,0.87-1.94,1.78-2.93,2.68l0.05,0.1c1.27-0.22,2.61-0.48,3.87-0.68l6.81-0.98l1.29,2.75l-14.77,1.57
			c-3.21,0.27-5.51-0.21-6.75-2.86C1499.81,467.06,1499.69,466.54,1499.63,466.02z"/>
	</g>
</g>
<line class="st0" x1="1548.04" y1="988.78" x2="1536.51" y2="985.87"/>
<line class="st0" x1="1358.52" y1="1332.42" x2="1349.88" y2="1324.24"/>
<line class="st0" x1="1009.23" y1="1542.66" x2="1005.94" y2="1530.93"/>
<line class="st0" x1="615.39" y1="1548.55" x2="618.09" y2="1537.62"/>
<line class="st0" x1="259.94" y1="1350.92" x2="268.27" y2="1342.44"/>
<line class="st0" x1="54.87" y1="999.59" x2="66.14" y2="996.58"/>
<line class="st0" x1="53.38" y1="605.6" x2="64.89" y2="608.61"/>
<line class="st0" x1="256.15" y1="252.62" x2="264.43" y2="261.27"/>
<line class="st0" x1="1539.81" y1="581.19" x2="1528.52" y2="584.54"/>
<line class="st0" x1="600.26" y1="66.99" x2="597.07" y2="55.66"/>
<line class="st0" x1="1004" y1="55.99" x2="1000.85" y2="67.43"/>
<line class="st0" x1="1354.2" y1="263.11" x2="1345.64" y2="271.39"/>
<circle id="outer_circle_1_" class="st1" cx="799.5" cy="799.59" r="771.44"/>
<line id="March_1_" class="st2" x1="1536.51" y1="985.87" x2="1477.21" y2="970.03"/>
<line id="April_1_" class="st2" x1="1349.88" y1="1324.24" x2="1304.94" y2="1282.25"/>
<line class="st2" x1="1492.66" y1="986.67" x2="1474.19" y2="981.67"/>
<line class="st2" x1="1489.34" y1="998.56" x2="1470.96" y2="993.24"/>
<line class="st2" x1="1485.82" y1="1010.4" x2="1467.53" y2="1004.77"/>
<line class="st2" x1="1482.1" y1="1022.17" x2="1463.91" y2="1016.23"/>
<line class="st2" x1="1484.06" y1="1035.92" x2="1460.09" y2="1027.62"/>
<line class="st2" x1="1474.05" y1="1045.52" x2="1456.07" y2="1038.95"/>
<line class="st2" x1="1469.72" y1="1057.09" x2="1451.86" y2="1050.21"/>
<line class="st2" x1="1465.19" y1="1068.58" x2="1447.46" y2="1061.39"/>
<line class="st2" x1="1460.47" y1="1079.99" x2="1442.87" y2="1072.5"/>
<line class="st2" x1="1467.85" y1="1096.8" x2="1438.08" y2="1083.52"/>
<line class="st2" x1="1450.44" y1="1102.56" x2="1433.1" y2="1094.47"/>
<line class="st2" x1="1445.14" y1="1113.71" x2="1427.94" y2="1105.32"/>
<line class="st2" x1="1439.64" y1="1124.77" x2="1422.59" y2="1116.08"/>
<line class="st2" x1="1433.96" y1="1135.73" x2="1417.06" y2="1126.75"/>
<line class="st2" x1="1433.66" y1="1149.67" x2="1411.34" y2="1137.33"/>
<line class="st2" x1="1422.03" y1="1157.35" x2="1405.45" y2="1147.8"/>
<line class="st2" x1="1415.78" y1="1168.01" x2="1399.37" y2="1158.17"/>
<line class="st2" x1="1409.36" y1="1178.55" x2="1393.12" y2="1168.43"/>
<line class="st2" x1="1402.75" y1="1188.98" x2="1386.69" y2="1178.59"/>
<line class="st2" x1="1406.47" y1="1206.35" x2="1380.08" y2="1188.63"/>
<line class="st2" x1="1389.01" y1="1209.5" x2="1373.31" y2="1198.56"/>
<line class="st2" x1="1381.87" y1="1219.58" x2="1366.36" y2="1208.37"/>
<line class="st2" x1="1374.56" y1="1229.53" x2="1359.25" y2="1218.06"/>
<line class="st2" x1="1367.08" y1="1239.36" x2="1351.97" y2="1227.62"/>
<line class="st2" x1="1364.39" y1="1253.04" x2="1344.53" y2="1237.06"/>
<line class="st2" x1="1351.62" y1="1258.62" x2="1336.92" y2="1246.37"/>
<line class="st2" x1="1343.65" y1="1268.05" x2="1329.16" y2="1255.54"/>
<line class="st2" x1="1335.51" y1="1277.33" x2="1321.24" y2="1264.59"/>
<line class="st2" x1="1327.21" y1="1286.48" x2="1313.17" y2="1273.49"/>
<line class="st2" x1="1310.15" y1="1304.34" x2="1296.56" y2="1290.87"/>
<line class="st2" x1="1301.4" y1="1313.05" x2="1288.04" y2="1299.35"/>
<line class="st2" x1="1292.49" y1="1321.6" x2="1279.37" y2="1307.67"/>
<line class="st2" x1="1283.44" y1="1330" x2="1270.56" y2="1315.85"/>
<line class="st2" x1="1278.38" y1="1342.94" x2="1261.61" y2="1323.87"/>
<line class="st2" x1="1264.91" y1="1346.33" x2="1252.53" y2="1331.74"/>
<line id="May_1_" class="st2" x1="1006.04" y1="1531.25" x2="989.43" y2="1472.05"/>
<line class="st2" x1="1255.44" y1="1354.25" x2="1243.31" y2="1339.45"/>
<line class="st2" x1="1245.83" y1="1362.01" x2="1233.96" y2="1347"/>
<line class="st2" x1="1236.09" y1="1369.6" x2="1224.48" y2="1354.39"/>
<line class="st2" x1="1233.62" y1="1387.06" x2="1214.87" y2="1361.62"/>
<line class="st2" x1="1216.22" y1="1384.27" x2="1205.14" y2="1368.68"/>
<line class="st2" x1="1206.11" y1="1391.35" x2="1195.29" y2="1375.57"/>
<line class="st2" x1="1195.87" y1="1398.25" x2="1185.33" y2="1382.28"/>
<line class="st2" x1="1185.51" y1="1404.98" x2="1175.25" y2="1388.83"/>
<line class="st2" x1="1178.27" y1="1416.81" x2="1165.06" y2="1395.2"/>
<line class="st2" x1="1164.46" y1="1417.89" x2="1154.76" y2="1401.4"/>
<line class="st2" x1="1153.77" y1="1424.07" x2="1144.35" y2="1407.42"/>
<line class="st2" x1="1142.97" y1="1430.07" x2="1133.84" y2="1413.25"/>
<line class="st2" x1="1132.08" y1="1435.88" x2="1123.24" y2="1418.91"/>
<line class="st2" x1="1126.65" y1="1452.65" x2="1112.54" y2="1424.38"/>
<line class="st2" x1="1109.99" y1="1446.93" x2="1101.74" y2="1429.67"/>
<line class="st2" x1="1098.81" y1="1452.17" x2="1090.86" y2="1434.77"/>
<line class="st2" x1="1087.54" y1="1457.22" x2="1079.89" y2="1439.68"/>
<line class="st2" x1="1076.18" y1="1462.07" x2="1068.84" y2="1444.41"/>
<line class="st2" x1="1067.04" y1="1472.53" x2="1057.71" y2="1448.94"/>
<line class="st2" x1="1053.23" y1="1471.19" x2="1046.5" y2="1453.28"/>
<line class="st2" x1="1041.64" y1="1475.45" x2="1035.22" y2="1457.42"/>
<line class="st2" x1="1029.98" y1="1479.51" x2="1023.86" y2="1461.37"/>
<line class="st2" x1="1018.25" y1="1483.36" x2="1012.45" y2="1465.13"/>
<line class="st2" x1="1006.45" y1="1487.02" x2="1000.97" y2="1468.69"/>
<line class="st2" x1="982.68" y1="1493.72" x2="977.83" y2="1475.21"/>
<line class="st2" x1="970.71" y1="1496.76" x2="966.18" y2="1478.17"/>
<line class="st2" x1="958.69" y1="1499.6" x2="954.48" y2="1480.93"/>
<line class="st2" x1="946.63" y1="1502.22" x2="942.74" y2="1483.49"/>
<line class="st2" x1="935.7" y1="1510.89" x2="930.95" y2="1485.84"/>
<line class="st2" x1="922.37" y1="1506.85" x2="919.13" y2="1488"/>
<line class="st2" x1="910.18" y1="1508.86" x2="907.27" y2="1489.95"/>
<line class="st2" x1="897.96" y1="1510.65" x2="895.37" y2="1491.69"/>
<line class="st2" x1="885.72" y1="1512.23" x2="883.45" y2="1493.23"/>
<line class="st2" x1="874.73" y1="1526.18" x2="871.51" y2="1494.56"/>
<line class="st2" x1="861.15" y1="1514.76" x2="859.54" y2="1495.69"/>
<line class="st2" x1="848.84" y1="1515.7" x2="847.56" y2="1496.61"/>
<line class="st2" x1="836.51" y1="1516.44" x2="835.56" y2="1497.33"/>
<line class="st2" x1="824.17" y1="1516.96" x2="823.55" y2="1497.84"/>
<line class="st2" x1="811.93" y1="1523.64" x2="811.54" y2="1498.14"/>
<line class="st2" x1="799.48" y1="1517.37" x2="799.52" y2="1498.23"/>
<line class="st2" x1="787.13" y1="1517.25" x2="787.5" y2="1498.12"/>
<line class="st2" x1="774.79" y1="1516.93" x2="775.48" y2="1497.8"/>
<line class="st2" x1="762.45" y1="1516.39" x2="763.47" y2="1497.28"/>
<line class="st2" x1="748.41" y1="1526.96" x2="751.48" y2="1496.55"/>
<line class="st2" x1="737.81" y1="1514.67" x2="739.5" y2="1495.61"/>
<line class="st2" x1="725.52" y1="1513.49" x2="727.53" y2="1494.46"/>
<line class="st2" x1="713.25" y1="1512.1" x2="715.59" y2="1493.11"/>
<line class="st2" x1="701.01" y1="1510.51" x2="703.67" y2="1491.56"/>
<line class="st2" x1="687.82" y1="1514.85" x2="691.78" y2="1489.8"/>
<line class="st2" x1="676.61" y1="1506.68" x2="679.92" y2="1487.83"/>
<line class="st2" x1="664.46" y1="1504.45" x2="668.1" y2="1485.66"/>
<line class="st2" x1="652.36" y1="1502.01" x2="656.32" y2="1483.29"/>
<line class="st2" x1="640.29" y1="1499.37" x2="644.58" y2="1480.72"/>
<line id="June_1_" class="st2" x1="618.12" y1="1537.5" x2="632.88" y2="1477.94"/>
<line class="st2" x1="616.32" y1="1493.45" x2="621.24" y2="1474.96"/>
<line class="st2" x1="604.41" y1="1490.19" x2="609.64" y2="1471.79"/>
<line class="st2" x1="592.55" y1="1486.72" x2="598.11" y2="1468.41"/>
<line class="st2" x1="580.76" y1="1483.05" x2="586.63" y2="1464.84"/>
<line class="st2" x1="567.03" y1="1485.06" x2="575.22" y2="1461.06"/>
<line class="st2" x1="557.38" y1="1475.1" x2="563.88" y2="1457.1"/>
<line class="st2" x1="545.8" y1="1470.82" x2="552.6" y2="1452.94"/>
<line class="st2" x1="534.29" y1="1466.34" x2="541.4" y2="1448.58"/>
<line class="st2" x1="522.86" y1="1461.67" x2="530.27" y2="1444.03"/>
<line class="st2" x1="506.44" y1="1468.3" x2="519.22" y2="1439.29"/>
<line class="st2" x1="500.25" y1="1451.74" x2="508.26" y2="1434.37"/>
<line class="st2" x1="489.07" y1="1446.48" x2="497.39" y2="1429.25"/>
<line class="st2" x1="477.99" y1="1441.04" x2="486.6" y2="1423.95"/>
<line class="st2" x1="467" y1="1435.4" x2="475.91" y2="1418.46"/>
<line class="st2" x1="453.06" y1="1435.15" x2="465.31" y2="1412.79"/>
<line class="st2" x1="445.33" y1="1423.56" x2="454.81" y2="1406.94"/>
<line class="st2" x1="434.65" y1="1417.36" x2="444.41" y2="1400.91"/>
<line class="st2" x1="424.08" y1="1410.98" x2="434.12" y2="1394.7"/>
<line class="st2" x1="413.61" y1="1404.42" x2="423.94" y2="1388.31"/>
<line class="st2" x1="396.26" y1="1408.21" x2="413.87" y2="1381.75"/>
<line class="st2" x1="393.04" y1="1390.76" x2="403.91" y2="1375.02"/>
<line class="st2" x1="382.93" y1="1383.67" x2="394.07" y2="1368.11"/>
<line class="st2" x1="372.94" y1="1376.4" x2="384.35" y2="1361.04"/>
<line class="st2" x1="363.09" y1="1368.97" x2="374.76" y2="1353.81"/>
<line class="st2" x1="349.39" y1="1366.34" x2="365.29" y2="1346.4"/>
<line class="st2" x1="343.76" y1="1353.59" x2="355.95" y2="1338.84"/>
<line class="st2" x1="334.3" y1="1345.66" x2="346.74" y2="1331.12"/>
<line class="st2" x1="324.97" y1="1337.56" x2="337.66" y2="1323.24"/>
<line class="st2" x1="315.79" y1="1329.3" x2="328.72" y2="1315.2"/>
<line class="st2" x1="306.75" y1="1320.89" x2="319.93" y2="1307.01"/>
<line id="July_1_" class="st2" x1="268.18" y1="1342.53" x2="311.27" y2="1298.67"/>
<line class="st2" x1="289.12" y1="1303.6" x2="302.76" y2="1290.19"/>
<line class="st2" x1="280.52" y1="1294.73" x2="294.39" y2="1281.55"/>
<line class="st2" x1="272.08" y1="1285.72" x2="286.18" y2="1272.78"/>
<line class="st2" x1="263.8" y1="1276.56" x2="278.12" y2="1263.86"/>
<line class="st2" x1="250.93" y1="1271.32" x2="270.21" y2="1254.81"/>
<line class="st2" x1="247.71" y1="1257.82" x2="262.46" y2="1245.63"/>
<line class="st2" x1="239.92" y1="1248.24" x2="254.87" y2="1236.31"/>
<line class="st2" x1="232.28" y1="1238.54" x2="247.44" y2="1226.86"/>
<line class="st2" x1="224.82" y1="1228.7" x2="240.17" y2="1217.28"/>
<line class="st2" x1="207.65" y1="1226.89" x2="233.07" y2="1207.59"/>
<line class="st2" x1="210.4" y1="1208.65" x2="226.14" y2="1197.77"/>
<line class="st2" x1="203.46" y1="1198.44" x2="219.38" y2="1187.83"/>
<line class="st2" x1="196.69" y1="1188.11" x2="212.79" y2="1177.78"/>
<line class="st2" x1="190.09" y1="1177.67" x2="206.37" y2="1167.61"/>
<line class="st2" x1="178.36" y1="1170.27" x2="200.13" y2="1157.34"/>
<line class="st2" x1="177.46" y1="1156.45" x2="194.07" y2="1146.96"/>
<line class="st2" x1="171.41" y1="1145.68" x2="188.19" y2="1136.48"/>
<line class="st2" x1="165.56" y1="1134.81" x2="182.49" y2="1125.9"/>
<line class="st2" x1="159.89" y1="1123.84" x2="176.97" y2="1115.22"/>
<line class="st2" x1="142.79" y1="1117.14" x2="171.64" y2="1104.45"/>
<line class="st2" x1="149.12" y1="1101.61" x2="166.49" y2="1093.59"/>
<line class="st2" x1="144.02" y1="1090.36" x2="161.53" y2="1082.64"/>
<line class="st2" x1="139.12" y1="1079.03" x2="156.76" y2="1071.61"/>
<line class="st2" x1="134.42" y1="1067.61" x2="152.18" y2="1060.5"/>
<line class="st2" x1="124.07" y1="1058.34" x2="147.79" y2="1049.31"/>
<line class="st2" x1="125.6" y1="1044.54" x2="143.6" y2="1038.04"/>
<line class="st2" x1="121.49" y1="1032.9" x2="139.59" y2="1026.71"/>
<line class="st2" x1="117.58" y1="1021.18" x2="135.79" y2="1015.31"/>
<line class="st2" x1="113.88" y1="1009.41" x2="132.18" y2="1003.84"/>
<line class="st2" x1="110.37" y1="997.56" x2="128.77" y2="992.32"/>
<line id="August_1_" class="st2" x1="66.14" y1="996.58" x2="125.56" y2="980.73"/>
<line class="st2" x1="103.98" y1="973.71" x2="122.55" y2="969.1"/>
<line class="st2" x1="101.09" y1="961.7" x2="119.74" y2="957.41"/>
<line class="st2" x1="98.41" y1="949.65" x2="117.13" y2="945.68"/>
<line class="st2" x1="95.94" y1="937.55" x2="114.72" y2="933.9"/>
<line class="st2" x1="87.41" y1="926.52" x2="112.52" y2="922.09"/>
<line class="st2" x1="91.62" y1="913.23" x2="110.52" y2="910.23"/>
<line class="st2" x1="89.78" y1="901.02" x2="108.73" y2="898.35"/>
<line class="st2" x1="88.15" y1="888.78" x2="107.14" y2="886.44"/>
<line class="st2" x1="86.72" y1="876.52" x2="105.75" y2="874.5"/>
<line class="st2" x1="72.91" y1="865.34" x2="104.57" y2="862.54"/>
<line class="st2" x1="84.51" y1="851.92" x2="103.6" y2="850.56"/>
<line class="st2" x1="83.72" y1="839.59" x2="102.83" y2="838.56"/>
<line class="st2" x1="83.15" y1="827.26" x2="102.27" y2="826.55"/>
<line class="st2" x1="82.79" y1="814.92" x2="101.92" y2="814.54"/>
<line class="st2" x1="76.27" y1="802.58" x2="101.77" y2="802.52"/>
<line class="st2" x1="82.7" y1="790.22" x2="101.83" y2="790.5"/>
<line class="st2" x1="82.97" y1="777.87" x2="102.1" y2="778.49"/>
<line class="st2" x1="83.46" y1="765.53" x2="102.57" y2="766.48"/>
<line class="st2" x1="84.16" y1="753.21" x2="103.25" y2="754.48"/>
<line class="st2" x1="72.55" y1="739.84" x2="104.14" y2="742.49"/>
<line class="st2" x1="86.19" y1="728.59" x2="105.23" y2="730.52"/>
<line class="st2" x1="87.53" y1="716.32" x2="106.53" y2="718.57"/>
<line class="st2" x1="89.08" y1="704.06" x2="108.03" y2="706.65"/>
<line class="st2" x1="90.83" y1="691.84" x2="109.74" y2="694.75"/>
<line class="st2" x1="86.66" y1="678.6" x2="111.66" y2="682.88"/>
<line class="st2" x1="94.98" y1="667.49" x2="113.78" y2="671.05"/>
<line class="st2" x1="97.36" y1="655.38" x2="116.1" y2="659.26"/>
<line class="st2" x1="99.95" y1="643.31" x2="118.62" y2="647.51"/>
<line class="st2" x1="102.75" y1="631.28" x2="121.35" y2="635.8"/>
<line id="September_1_" class="st2" x1="64.89" y1="608.61" x2="124.27" y2="624.14"/>
<line class="st2" x1="108.98" y1="607.38" x2="127.4" y2="612.54"/>
<line class="st2" x1="112.39" y1="595.51" x2="130.73" y2="600.99"/>
<line class="st2" x1="116.02" y1="583.71" x2="134.25" y2="589.5"/>
<line class="st2" x1="119.84" y1="571.96" x2="137.97" y2="578.07"/>
<line class="st2" x1="117.99" y1="558.2" x2="141.89" y2="566.71"/>
<line class="st2" x1="128.09" y1="548.69" x2="146.01" y2="555.41"/>
<line class="st2" x1="132.52" y1="537.16" x2="150.31" y2="544.19"/>
<line class="st2" x1="137.14" y1="525.71" x2="154.81" y2="533.04"/>
<line class="st2" x1="141.96" y1="514.34" x2="159.5" y2="521.98"/>
<line class="st2" x1="135.53" y1="497.84" x2="164.38" y2="510.99"/>
<line class="st2" x1="152.18" y1="491.86" x2="169.45" y2="500.1"/>
<line class="st2" x1="157.58" y1="480.75" x2="174.71" y2="489.29"/>
<line class="st2" x1="163.17" y1="469.74" x2="180.15" y2="478.57"/>
<line class="st2" x1="168.95" y1="458.83" x2="185.77" y2="467.95"/>
<line class="st2" x1="169.37" y1="444.88" x2="191.58" y2="457.42"/>
<line class="st2" x1="181.07" y1="437.31" x2="197.57" y2="447"/>
<line class="st2" x1="187.41" y1="426.71" x2="203.73" y2="436.68"/>
<line class="st2" x1="193.92" y1="416.22" x2="210.08" y2="426.47"/>
<line class="st2" x1="200.62" y1="405.84" x2="216.59" y2="416.38"/>
<line class="st2" x1="197.06" y1="388.44" x2="223.28" y2="406.39"/>
<line class="st2" x1="214.54" y1="385.45" x2="230.14" y2="396.52"/>
<line class="st2" x1="221.76" y1="375.43" x2="237.17" y2="386.77"/>
<line class="st2" x1="229.16" y1="365.54" x2="244.37" y2="377.14"/>
<line class="st2" x1="236.72" y1="355.78" x2="251.73" y2="367.64"/>
<line class="st2" x1="239.53" y1="342.12" x2="259.25" y2="358.27"/>
<line class="st2" x1="252.35" y1="336.65" x2="266.94" y2="349.03"/>
<line class="st2" x1="260.4" y1="327.29" x2="274.78" y2="339.92"/>
<line class="st2" x1="268.62" y1="318.07" x2="282.78" y2="330.95"/>
<line class="st2" x1="276.99" y1="309" x2="290.93" y2="322.11"/>
<line class="st2" x1="285.52" y1="300.07" x2="299.23" y2="313.42"/>
<line id="October_1_" class="st2" x1="264.39" y1="261.23" x2="307.68" y2="304.87"/>
<line class="st2" x1="303.04" y1="282.66" x2="316.28" y2="296.47"/>
<line class="st2" x1="312.02" y1="274.18" x2="325.01" y2="288.22"/>
<line class="st2" x1="321.14" y1="265.86" x2="333.89" y2="280.12"/>
<line class="st2" x1="330.4" y1="257.69" x2="342.91" y2="272.17"/>
<line class="st2" x1="335.81" y1="244.9" x2="352.07" y2="264.38"/>
<line class="st2" x1="349.35" y1="241.85" x2="361.35" y2="256.75"/>
<line class="st2" x1="359.02" y1="234.18" x2="370.77" y2="249.28"/>
<line class="st2" x1="368.83" y1="226.67" x2="380.31" y2="241.97"/>
<line class="st2" x1="378.76" y1="219.33" x2="389.98" y2="234.83"/>
<line class="st2" x1="381.69" y1="201.95" x2="399.77" y2="227.86"/>
<line class="st2" x1="399" y1="205.18" x2="409.68" y2="221.05"/>
<line class="st2" x1="409.3" y1="198.36" x2="419.7" y2="214.42"/>
<line class="st2" x1="419.71" y1="191.73" x2="429.84" y2="207.96"/>
<line class="st2" x1="430.24" y1="185.27" x2="440.08" y2="201.68"/>
<line class="st2" x1="437.78" y1="173.63" x2="450.43" y2="195.57"/>
<line class="st2" x1="451.62" y1="172.91" x2="460.89" y2="189.64"/>
<line class="st2" x1="462.46" y1="167" x2="471.45" y2="183.9"/>
<line class="st2" x1="473.41" y1="161.29" x2="482.1" y2="178.33"/>
<line class="st2" x1="484.45" y1="155.76" x2="492.85" y2="172.95"/>
<line class="st2" x1="490.31" y1="139.12" x2="503.69" y2="167.76"/>
<line class="st2" x1="506.82" y1="145.28" x2="514.61" y2="162.75"/>
<line class="st2" x1="518.13" y1="140.33" x2="525.63" y2="157.93"/>
<line class="st2" x1="529.53" y1="135.57" x2="536.72" y2="153.3"/>
<line class="st2" x1="541" y1="131.02" x2="547.89" y2="148.87"/>
<line class="st2" x1="550.4" y1="120.78" x2="559.13" y2="144.63"/>
<line class="st2" x1="564.18" y1="122.5" x2="570.45" y2="140.58"/>
<line class="st2" x1="575.88" y1="118.54" x2="581.84" y2="136.72"/>
<line class="st2" x1="587.64" y1="114.78" x2="593.29" y2="133.07"/>
<line class="st2" x1="599.47" y1="111.23" x2="604.8" y2="129.61"/>
<line id="November_1_" class="st2" x1="600.26" y1="66.99" x2="616.37" y2="126.35"/>
<line class="st2" x1="623.3" y1="104.73" x2="627.99" y2="123.28"/>
<line class="st2" x1="635.29" y1="101.8" x2="639.66" y2="120.42"/>
<line class="st2" x1="647.33" y1="99.06" x2="651.38" y2="117.76"/>
<line class="st2" x1="659.42" y1="96.54" x2="663.15" y2="115.31"/>
<line class="st2" x1="670.42" y1="87.96" x2="674.96" y2="113.05"/>
<line class="st2" x1="683.72" y1="92.12" x2="686.8" y2="111"/>
<line class="st2" x1="695.92" y1="90.22" x2="698.68" y2="109.16"/>
<line class="st2" x1="708.16" y1="88.54" x2="710.58" y2="107.51"/>
<line class="st2" x1="720.42" y1="87.06" x2="722.52" y2="106.08"/>
<line class="st2" x1="731.53" y1="73.2" x2="734.47" y2="104.85"/>
<line class="st2" x1="745" y1="84.74" x2="746.45" y2="103.82"/>
<line class="st2" x1="757.32" y1="83.9" x2="758.44" y2="103"/>
<line class="st2" x1="769.66" y1="83.27" x2="770.44" y2="102.39"/>
<line class="st2" x1="782" y1="82.86" x2="782.46" y2="101.99"/>
<line class="st2" x1="794.3" y1="76.29" x2="794.47" y2="101.79"/>
<line class="st2" x1="806.69" y1="82.66" x2="806.49" y2="101.8"/>
<line class="st2" x1="819.04" y1="82.88" x2="818.51" y2="102.01"/>
<line class="st2" x1="831.38" y1="83.32" x2="830.52" y2="102.43"/>
<line class="st2" x1="843.71" y1="83.96" x2="842.53" y2="103.06"/>
<line class="st2" x1="857.03" y1="72.3" x2="854.52" y2="103.9"/>
<line class="st2" x1="868.33" y1="85.89" x2="866.49" y2="104.94"/>
<line class="st2" x1="880.62" y1="87.18" x2="878.44" y2="106.19"/>
<line class="st2" x1="892.88" y1="88.67" x2="890.38" y2="107.64"/>
<line class="st2" x1="905.11" y1="90.37" x2="902.28" y2="109.3"/>
<line class="st2" x1="918.41" y1="85.65" x2="914.15" y2="111.16"/>
<line class="st2" x1="929.47" y1="94.41" x2="925.99" y2="113.23"/>
<line class="st2" x1="941.6" y1="96.74" x2="937.8" y2="115.5"/>
<line class="st2" x1="953.68" y1="99.29" x2="949.56" y2="117.97"/>
<line class="st2" x1="965.72" y1="102.04" x2="961.28" y2="120.65"/>
<line class="st2" x1="977.71" y1="104.99" x2="972.95" y2="123.52"/>
<line id="December_1_" class="st2" x1="1000.86" y1="67.44" x2="984.57" y2="126.6"/>
<line class="st2" x1="1001.53" y1="111.52" x2="996.13" y2="129.88"/>
<line class="st2" x1="1013.35" y1="115.09" x2="1007.64" y2="133.35"/>
<line class="st2" x1="1025.11" y1="118.87" x2="1019.08" y2="137.03"/>
<line class="st2" x1="1036.8" y1="122.84" x2="1030.46" y2="140.89"/>
<line class="st2" x1="1050.59" y1="121.16" x2="1041.77" y2="144.96"/>
<line class="st2" x1="1059.97" y1="131.39" x2="1053.01" y2="149.22"/>
<line class="st2" x1="1071.44" y1="135.97" x2="1064.18" y2="153.67"/>
<line class="st2" x1="1082.83" y1="140.74" x2="1075.26" y2="158.31"/>
<line class="st2" x1="1094.13" y1="145.7" x2="1086.27" y2="163.15"/>
<line class="st2" x1="1110.72" y1="139.48" x2="1097.19" y2="168.17"/>
<line class="st2" x1="1116.48" y1="156.22" x2="1108.02" y2="173.38"/>
<line class="st2" x1="1127.52" y1="161.76" x2="1118.76" y2="178.77"/>
<line class="st2" x1="1138.45" y1="167.49" x2="1129.41" y2="184.35"/>
<line class="st2" x1="1149.29" y1="173.41" x2="1139.95" y2="190.11"/>
<line class="st2" x1="1163.23" y1="174.01" x2="1150.4" y2="196.05"/>
<line class="st2" x1="1170.65" y1="185.81" x2="1160.75" y2="202.18"/>
<line class="st2" x1="1181.17" y1="192.28" x2="1170.98" y2="208.47"/>
<line class="st2" x1="1191.57" y1="198.93" x2="1181.11" y2="214.95"/>
<line class="st2" x1="1201.86" y1="205.76" x2="1191.12" y2="221.59"/>
<line class="st2" x1="1219.31" y1="202.42" x2="1201.02" y2="228.41"/>
<line class="st2" x1="1222.08" y1="219.94" x2="1210.8" y2="235.4"/>
<line class="st2" x1="1232" y1="227.29" x2="1220.46" y2="242.56"/>
<line class="st2" x1="1241.8" y1="234.81" x2="1229.99" y2="249.88"/>
<line class="st2" x1="1251.46" y1="242.5" x2="1239.4" y2="257.36"/>
<line class="st2" x1="1265.08" y1="245.49" x2="1248.68" y2="265"/>
<line class="st2" x1="1270.38" y1="258.37" x2="1257.82" y2="272.8"/>
<line class="st2" x1="1279.63" y1="266.55" x2="1266.82" y2="280.76"/>
<line class="st2" x1="1288.75" y1="274.89" x2="1275.69" y2="288.88"/>
<line class="st2" x1="1297.71" y1="283.38" x2="1284.42" y2="297.14"/>
<line class="st2" x1="1306.53" y1="292.02" x2="1293.01" y2="305.55"/>
<line id="Januar_1_" class="st2" x1="1345.64" y1="271.39" x2="1301.44" y2="314.11"/>
<line class="st2" x1="1323.72" y1="309.76" x2="1309.73" y2="322.82"/>
<line class="st2" x1="1332.08" y1="318.84" x2="1317.87" y2="331.66"/>
<line class="st2" x1="1340.28" y1="328.07" x2="1325.86" y2="340.64"/>
<line class="st2" x1="1348.32" y1="337.44" x2="1333.69" y2="349.76"/>
<line class="st2" x1="1361.38" y1="342.75" x2="1341.36" y2="359.02"/>
<line class="st2" x1="1363.92" y1="356.59" x2="1348.87" y2="368.4"/>
<line class="st2" x1="1371.47" y1="366.37" x2="1356.21" y2="377.91"/>
<line class="st2" x1="1378.85" y1="376.27" x2="1363.4" y2="387.55"/>
<line class="st2" x1="1386.06" y1="386.29" x2="1370.41" y2="397.31"/>
<line class="st2" x1="1402.75" y1="389.89" x2="1377.26" y2="407.19"/>
<line class="st2" x1="1399.95" y1="406.71" x2="1383.94" y2="417.18"/>
<line class="st2" x1="1406.63" y1="417.1" x2="1390.44" y2="427.29"/>
<line class="st2" x1="1413.13" y1="427.6" x2="1396.77" y2="437.51"/>
<line class="st2" x1="1419.45" y1="438.21" x2="1402.92" y2="447.84"/>
<line class="st2" x1="1430.99" y1="445.9" x2="1408.89" y2="458.27"/>
<line class="st2" x1="1431.54" y1="459.74" x2="1414.68" y2="468.8"/>
<line class="st2" x1="1437.3" y1="470.66" x2="1420.29" y2="479.43"/>
<line class="st2" x1="1442.88" y1="481.68" x2="1425.72" y2="490.15"/>
<line class="st2" x1="1448.26" y1="492.8" x2="1430.96" y2="500.97"/>
<line class="st2" x1="1464.78" y1="498.78" x2="1436.16" y2="511.91"/>
<line class="st2" x1="1458.45" y1="515.29" x2="1440.88" y2="522.87"/>
<line class="st2" x1="1463.26" y1="526.67" x2="1445.56" y2="533.94"/>
<line class="st2" x1="1467.86" y1="538.13" x2="1450.04" y2="545.09"/>
<line class="st2" x1="1472.27" y1="549.66" x2="1454.33" y2="556.32"/>
<line class="st2" x1="1482.39" y1="559.19" x2="1458.43" y2="567.62"/>
<line class="st2" x1="1480.49" y1="572.95" x2="1462.33" y2="578.98"/>
<line class="st2" x1="1484.3" y1="584.7" x2="1466.04" y2="590.42"/>
<line id="February_1_" class="st2" x1="1528.52" y1="584.54" x2="1469.55" y2="601.91"/>
<line class="st2" x1="1491.3" y1="608.38" x2="1472.86" y2="613.47"/>
<line class="st2" x1="1494.5" y1="620.31" x2="1475.97" y2="625.08"/>
<line class="st2" x1="1497.49" y1="632.29" x2="1478.88" y2="636.74"/>
<line class="st2" x1="1500.27" y1="644.32" x2="1481.59" y2="648.45"/>
<line class="st2" x1="1509.08" y1="655.13" x2="1484.1" y2="660.2"/>
<line class="st2" x1="1505.22" y1="668.52" x2="1486.4" y2="672"/>
<line class="st2" x1="1507.37" y1="680.67" x2="1488.5" y2="683.84"/>
<line class="st2" x1="1509.32" y1="692.87" x2="1490.4" y2="695.7"/>
<line class="st2" x1="1511.06" y1="705.09" x2="1492.09" y2="707.6"/>
<line class="st2" x1="1525.15" y1="715.91" x2="1493.58" y2="719.53"/>
<line class="st2" x1="1513.91" y1="729.63" x2="1494.86" y2="731.48"/>
<line class="st2" x1="1515.01" y1="741.93" x2="1495.94" y2="743.45"/>
<line class="st2" x1="1515.91" y1="754.24" x2="1496.81" y2="755.44"/>
<line class="st2" x1="1516.59" y1="766.57" x2="1497.48" y2="767.44"/>
<line class="st2" x1="1523.43" y1="778.73" x2="1497.93" y2="779.45"/>
<line class="st2" x1="1517.32" y1="791.26" x2="1498.18" y2="791.47"/>
<line class="st2" x1="1517.36" y1="803.61" x2="1498.23" y2="803.49"/>
<line class="st2" x1="1517.19" y1="815.95" x2="1498.06" y2="815.51"/>
<line class="st2" x1="1516.81" y1="828.3" x2="1497.69" y2="827.52"/>
<line class="st2" x1="1528.78" y1="841.36" x2="1497.12" y2="839.53"/>
<line class="st2" x1="1515.41" y1="852.95" x2="1496.33" y2="851.52"/>
<line class="st2" x1="1514.39" y1="865.26" x2="1495.34" y2="863.5"/>
<line class="st2" x1="1513.16" y1="877.55" x2="1494.15" y2="875.46"/>
<line class="st2" x1="1511.72" y1="889.81" x2="1492.74" y2="887.4"/>
<line class="st2" x1="1516.26" y1="902.95" x2="1491.14" y2="899.31"/>
<line class="st2" x1="1508.21" y1="914.26" x2="1489.32" y2="911.19"/>
<line class="st2" x1="1506.14" y1="926.43" x2="1487.31" y2="923.04"/>
<line class="st2" x1="1503.86" y1="938.57" x2="1485.09" y2="934.85"/>
<line class="st2" x1="1501.37" y1="950.66" x2="1482.67" y2="946.62"/>
<line class="st2" x1="1498.67" y1="962.71" x2="1480.04" y2="958.35"/>
<circle id="Day_circle_1_" class="st2" cx="800" cy="800" r="717.32"/>
<g>
	<g>
		<path class="st3" d="M1530.79,707.96l0.4,3.26l11.5-1.41l-0.31-2.49l0.66-0.08c0.33,1.11,0.75,1.95,1.2,2.56l0.1,0.78l-13.03,1.6
			l0.37,3.02l-0.85,0.1l-0.89-7.25L1530.79,707.96z"/>
		<path class="st3" d="M1538.09,716.89c4.62-0.5,7.33,0.72,7.61,3.38s-2.1,4.43-6.72,4.93s-7.42-0.71-7.71-3.37
			C1531,719.17,1533.47,717.39,1538.09,716.89z M1538.89,724.21c4.24-0.46,6.2-1.93,5.99-3.86s-2.43-2.95-6.67-2.49
			s-6.29,1.94-6.08,3.87C1532.33,723.66,1534.65,724.67,1538.89,724.21z"/>
		<path class="st3" d="M1535.7,832.24c4.44,4.8,6.92,7.23,9.34,7.35c1.74,0.09,3.14-0.78,3.24-2.89c0.06-1.27-0.65-2.44-1.66-3.34
			l0.62-0.6c1.12,1.11,1.96,2.38,1.87,4.08c-0.12,2.48-1.75,3.86-4.11,3.74c-2.78-0.14-5.32-2.8-9.23-6.89
			c0.01,0.78,0.02,1.59-0.02,2.36l-0.24,4.75l-0.86-0.04l0.42-8.55L1535.7,832.24z"/>
		<path class="st3" d="M1541.58,843.21c4.64,0.29,7.1,1.96,6.93,4.63c-0.17,2.66-2.82,4-7.46,3.71s-7.19-1.97-7.02-4.63
			C1534.2,844.25,1536.94,842.91,1541.58,843.21z M1541.11,850.56c4.26,0.27,6.43-0.85,6.56-2.78c0.12-1.93-1.9-3.32-6.15-3.59
			c-4.26-0.27-6.53,0.84-6.65,2.78S1536.85,850.29,1541.11,850.56z"/>
		<path class="st3" d="M1476.99,1089.94l-1.31,3.02l10.62,4.61l1-2.3l0.61,0.26c-0.28,1.12-0.35,2.06-0.26,2.81l-0.31,0.72
			l-12.04-5.23l-1.21,2.79l-0.78-0.34l2.91-6.69L1476.99,1089.94z"/>
		<path class="st3" d="M1478.75,1101.36c4.24,1.91,5.95,4.34,4.85,6.77s-4.06,2.75-8.29,0.84c-4.24-1.91-6.03-4.38-4.94-6.81
			C1471.48,1099.73,1474.52,1099.45,1478.75,1101.36z M1475.72,1108.08c3.89,1.75,6.32,1.48,7.12-0.29s-0.6-3.78-4.49-5.53
			s-6.41-1.51-7.2,0.25C1470.35,1104.28,1471.83,1106.32,1475.72,1108.08z"/>
		<path class="st3" d="M1418.33,1199.61c1.4,6.39,2.31,9.73,4.35,11.07c1.46,0.95,3.1,0.91,4.26-0.85c0.7-1.06,0.67-2.44,0.26-3.73
			l0.84-0.2c0.41,1.52,0.48,3.05-0.45,4.47c-1.36,2.08-3.46,2.45-5.44,1.15c-2.33-1.52-3.17-5.1-4.48-10.6
			c-0.39,0.68-0.79,1.38-1.21,2.02l-2.61,3.98l-0.72-0.47l4.69-7.17L1418.33,1199.61z"/>
		<path class="st3" d="M1417.86,1212.05c3.85,2.6,5.13,5.28,3.64,7.49s-4.46,2.03-8.31-0.56c-3.85-2.6-5.21-5.33-3.72-7.54
			C1410.96,1209.22,1414,1209.45,1417.86,1212.05z M1413.74,1218.16c3.54,2.38,5.98,2.52,7.06,0.91s0.04-3.82-3.5-6.21
			c-3.54-2.38-6.06-2.57-7.14-0.96C1409.08,1213.51,1410.2,1215.78,1413.74,1218.16z"/>
		<path class="st3" d="M1244.65,1387.31l-2.63,1.97l6.95,9.27l2-1.5l0.4,0.53c-0.8,0.83-1.32,1.62-1.62,2.32l-0.63,0.47l-7.88-10.51
			l-2.44,1.83l-0.51-0.68l5.84-4.38L1244.65,1387.31z"/>
		<path class="st3" d="M1240.54,1398.1c2.73,3.75,3.02,6.71,0.87,8.28c-2.16,1.57-4.88,0.39-7.62-3.37
			c-2.73-3.75-3.08-6.79-0.92-8.36C1235.03,1393.09,1237.8,1394.34,1240.54,1398.1z M1234.58,1402.44c2.51,3.45,4.76,4.41,6.33,3.27
			s1.34-3.58-1.17-7.02c-2.51-3.45-4.82-4.48-6.38-3.34C1231.8,1396.48,1232.08,1398.99,1234.58,1402.44z"/>
		<path class="st3" d="M1135.48,1455.47c-1.99,6.23-2.88,9.58-1.79,11.76c0.78,1.55,2.23,2.34,4.11,1.4
			c1.14-0.57,1.8-1.77,2.09-3.09l0.83,0.25c-0.41,1.52-1.11,2.88-2.63,3.64c-2.22,1.12-4.22,0.38-5.28-1.73
			c-1.25-2.48-0.19-6,1.44-11.42c-0.67,0.39-1.38,0.8-2.06,1.15l-4.25,2.14l-0.39-0.77l7.65-3.85L1135.48,1455.47z"/>
		<path class="st3" d="M1128.81,1466c2.03,4.18,1.79,7.14-0.61,8.3s-4.87-0.48-6.9-4.66s-1.83-7.22,0.57-8.39
			C1124.27,1460.09,1126.79,1461.82,1128.81,1466z M1122.18,1469.22c1.86,3.84,3.91,5.18,5.65,4.33c1.74-0.84,1.95-3.29,0.09-7.12
			c-1.86-3.84-3.95-5.26-5.69-4.42C1120.5,1462.86,1120.32,1465.38,1122.18,1469.22z"/>
		<path class="st3" d="M882.46,1531.94l-3.27,0.36l1.25,11.51l2.49-0.27l0.07,0.66c-1.11,0.31-1.96,0.72-2.57,1.17l-0.78,0.08
			l-1.42-13.05l-3.03,0.33l-0.09-0.85l7.25-0.79L882.46,1531.94z"/>
		<path class="st3" d="M873.42,1539.13c0.44,4.62-0.82,7.32-3.48,7.57s-4.4-2.16-4.84-6.78s0.82-7.41,3.47-7.66
			C871.24,1532.01,872.99,1534.5,873.42,1539.13z M866.09,1539.82c0.4,4.25,1.85,6.22,3.78,6.04c1.93-0.18,2.98-2.39,2.58-6.64
			c-0.4-4.25-1.86-6.31-3.79-6.13C866.73,1533.28,865.69,1535.58,866.09,1539.82z"/>
		<path class="st3" d="M753.81,1534.96c-4.89,4.34-7.36,6.77-7.53,9.2c-0.12,1.73,0.72,3.15,2.82,3.3c1.27,0.09,2.45-0.61,3.38-1.59
			l0.59,0.64c-1.13,1.1-2.42,1.91-4.12,1.79c-2.48-0.17-3.82-1.82-3.66-4.18c0.19-2.77,2.9-5.26,7.06-9.09
			c-0.78,0-1.59-0.01-2.36-0.07l-4.75-0.33l0.06-0.86l8.54,0.59L753.81,1534.96z"/>
		<path class="st3" d="M742.72,1540.62c-0.38,4.63-2.1,7.06-4.76,6.83c-2.66-0.22-3.95-2.9-3.56-7.53s2.11-7.15,4.77-6.93
			C741.82,1533.22,743.1,1535.99,742.72,1540.62z M735.37,1540.01c-0.35,4.25,0.72,6.45,2.65,6.61c1.93,0.16,3.36-1.83,3.71-6.08
			s-0.71-6.54-2.65-6.7C737.16,1533.67,735.73,1535.76,735.37,1540.01z"/>
		<path class="st3" d="M513.27,1478.36l-3.02-1.3l-4.56,10.64l2.3,0.99l-0.26,0.61c-1.12-0.28-2.06-0.34-2.81-0.25l-0.72-0.31
			l5.17-12.06l-2.8-1.2l0.34-0.78l6.7,2.88L513.27,1478.36z"/>
		<path class="st3" d="M501.85,1480.17c-1.89,4.24-4.31,5.97-6.75,4.88s-2.77-4.04-0.88-8.28c1.89-4.24,4.35-6.05,6.79-4.96
			C503.45,1472.89,503.75,1475.93,501.85,1480.17z M495.12,1477.17c-1.74,3.89-1.45,6.33,0.32,7.12c1.77,0.79,3.77-0.62,5.51-4.52
			c1.74-3.89,1.48-6.41-0.29-7.2C498.9,1471.78,496.86,1473.28,495.12,1477.17z"/>
		<path class="st3" d="M399.69,1417.88c-6.39,1.39-9.74,2.3-11.07,4.33c-0.95,1.46-0.92,3.1,0.85,4.26c1.06,0.7,2.44,0.67,3.73,0.26
			l0.2,0.85c-1.52,0.41-3.05,0.48-4.47-0.45c-2.08-1.36-2.44-3.46-1.15-5.44c1.52-2.33,5.1-3.17,10.61-4.47
			c-0.68-0.39-1.38-0.79-2.02-1.21l-3.98-2.61l0.48-0.72l7.16,4.7L399.69,1417.88z"/>
		<path class="st3" d="M387.23,1417.37c-2.6,3.85-5.28,5.12-7.49,3.63s-2.02-4.46,0.58-8.31c2.6-3.85,5.34-5.2,7.54-3.71
			C390.06,1410.48,389.83,1413.52,387.23,1417.37z M381.12,1413.24c-2.39,3.53-2.52,5.98-0.92,7.06c1.6,1.08,3.82,0.04,6.21-3.49
			c2.39-3.53,2.58-6.05,0.97-7.14C385.78,1408.6,383.51,1409.71,381.12,1413.24z"/>
		<path class="st3" d="M206.98,1237.01l-1.94-2.66l-9.35,6.83l1.48,2.02l-0.54,0.39c-0.82-0.81-1.6-1.34-2.3-1.65l-0.46-0.64
			l10.6-7.74l-1.79-2.46l0.69-0.5l4.3,5.9L206.98,1237.01z"/>
		<path class="st3" d="M196.26,1232.77c-3.79,2.68-6.75,2.93-8.29,0.76c-1.54-2.18-0.32-4.89,3.47-7.57
			c3.79-2.68,6.83-2.98,8.37-0.81C201.34,1227.33,200.05,1230.09,196.26,1232.77z M192,1226.76c-3.48,2.46-4.47,4.7-3.35,6.28
			c1.12,1.58,3.56,1.39,7.04-1.07s4.54-4.75,3.43-6.34C198,1224.05,195.48,1224.3,192,1226.76z"/>
		<path class="st3" d="M140.26,1126.99c-6.2-2.07-9.54-3.01-11.73-1.94c-1.56,0.76-2.37,2.2-1.45,4.09
			c0.56,1.14,1.75,1.82,3.07,2.13l-0.26,0.83c-1.52-0.43-2.86-1.15-3.61-2.67c-1.09-2.23-0.32-4.22,1.8-5.26
			c2.5-1.22,6.01-0.11,11.4,1.59c-0.38-0.68-0.78-1.38-1.12-2.08l-2.08-4.28l0.78-0.38l3.75,7.7L140.26,1126.99z"/>
		<path class="st3" d="M129.82,1120.2c-4.21,1.97-7.17,1.7-8.3-0.72c-1.13-2.41,0.55-4.87,4.75-6.84c4.21-1.97,7.25-1.73,8.38,0.68
			S134.03,1118.22,129.82,1120.2z M126.69,1113.53c-3.86,1.81-5.23,3.84-4.41,5.59s3.26,2,7.12,0.18c3.86-1.81,5.31-3.88,4.49-5.63
			S130.55,1111.71,126.69,1113.53z"/>
		<path class="st3" d="M67.49,877.32l-0.33-3.27l-11.52,1.17l0.25,2.49l-0.66,0.07c-0.3-1.12-0.71-1.97-1.15-2.58L54,874.41
			l13.06-1.33l-0.31-3.03l0.85-0.09l0.74,7.26L67.49,877.32z"/>
		<path class="st3" d="M60.37,868.24c-4.63,0.41-7.31-0.88-7.54-3.53c-0.23-2.66,2.19-4.38,6.82-4.79c4.63-0.4,7.4,0.87,7.63,3.53
			C67.51,866.1,64.99,867.84,60.37,868.24z M59.72,860.9c-4.25,0.37-6.23,1.8-6.07,3.73c0.17,1.93,2.37,3,6.62,2.63
			s6.33-1.81,6.16-3.74C66.27,861.59,63.97,860.53,59.72,860.9z"/>
		<path class="st3" d="M65.38,748.69c-4.31-4.92-6.73-7.41-9.15-7.59c-1.73-0.13-3.16,0.7-3.32,2.8c-0.1,1.27,0.59,2.46,1.57,3.39
			l-0.64,0.59c-1.09-1.14-1.9-2.43-1.77-4.13c0.19-2.48,1.85-3.81,4.21-3.63c2.77,0.21,5.24,2.94,9.05,7.12
			c0.01-0.78,0.02-1.59,0.08-2.36l0.36-4.74l0.86,0.07l-0.65,8.54L65.38,748.69z"/>
		<path class="st3" d="M59.8,737.57c-4.63-0.42-7.04-2.15-6.8-4.81s2.93-3.93,7.55-3.51c4.63,0.42,7.13,2.16,6.89,4.81
			C67.2,736.72,64.42,737.98,59.8,737.57z M60.46,730.23c-4.25-0.38-6.45,0.68-6.63,2.61c-0.17,1.93,1.81,3.37,6.05,3.75
			c4.25,0.38,6.55-0.67,6.72-2.6C66.78,732.06,64.71,730.61,60.46,730.23z"/>
		<path class="st3" d="M125.42,504.52l1.33-3l-10.58-4.7l-1.02,2.29l-0.61-0.27c0.29-1.12,0.36-2.06,0.28-2.81l0.32-0.72l11.99,5.33
			l1.23-2.78l0.78,0.35l-2.96,6.67L125.42,504.52z"/>
		<path class="st3" d="M123.73,493.12c-4.22-1.94-5.91-4.39-4.8-6.81c1.12-2.42,4.07-2.72,8.29-0.78s6,4.42,4.88,6.85
			C130.99,494.8,127.95,495.06,123.73,493.12z M126.81,486.43c-3.87-1.78-6.31-1.53-7.12,0.23s0.57,3.78,4.45,5.56
			c3.87,1.78,6.39,1.56,7.2-0.2C132.15,490.27,130.68,488.21,126.81,486.43z"/>
		<path class="st3" d="M187.35,391.73c-1.31-6.41-2.18-9.76-4.2-11.12c-1.44-0.97-3.09-0.95-4.27,0.79
			c-0.71,1.05-0.7,2.43-0.31,3.72l-0.85,0.19c-0.39-1.53-0.44-3.05,0.51-4.46c1.39-2.06,3.49-2.4,5.45-1.08
			c2.31,1.55,3.1,5.14,4.34,10.66c0.4-0.67,0.81-1.37,1.24-2.01l2.66-3.95l0.72,0.48l-4.78,7.1L187.35,391.73z"/>
		<path class="st3" d="M188,379.29c-3.82-2.65-5.06-5.35-3.54-7.54s4.49-1.97,8.3,0.68c3.82,2.65,5.13,5.41,3.61,7.6
			S191.81,381.94,188,379.29z M192.2,373.24c-3.5-2.43-5.95-2.6-7.05-1.01c-1.11,1.59-0.09,3.82,3.41,6.26
			c3.5,2.43,6.02,2.66,7.13,1.06C196.79,377.96,195.7,375.67,192.2,373.24z"/>
		<path class="st3" d="M370.72,201.36l2.68-1.9l-6.71-9.44l-2.04,1.45l-0.38-0.54c0.82-0.81,1.36-1.58,1.68-2.27l0.64-0.46
			l7.6,10.71l2.48-1.76l0.49,0.69l-5.95,4.23L370.72,201.36z"/>
		<path class="st3" d="M375.08,190.71c-2.63-3.83-2.84-6.79-0.65-8.3c2.2-1.51,4.89-0.26,7.53,3.57c2.63,3.83,2.89,6.87,0.7,8.38
			C380.46,195.86,377.71,194.53,375.08,190.71z M381.15,186.53c-2.42-3.51-4.64-4.53-6.24-3.43c-1.6,1.1-1.44,3.54,0.98,7.05
			c2.42,3.51,4.69,4.61,6.29,3.51C383.77,192.56,383.56,190.04,381.15,186.53z"/>
		<path class="st3" d="M477.64,138c2.12-6.19,3.07-9.52,2.02-11.71c-0.75-1.57-2.18-2.39-4.08-1.48c-1.15,0.55-1.84,1.73-2.15,3.05
			l-0.83-0.26c0.44-1.51,1.17-2.85,2.7-3.59c2.24-1.07,4.23-0.29,5.24,1.84c1.2,2.51,0.06,6-1.67,11.39
			c0.68-0.38,1.39-0.77,2.08-1.1l4.29-2.05l0.37,0.78l-7.72,3.69L477.64,138z"/>
		<path class="st3" d="M484.52,127.6c-1.94-4.22-1.65-7.17,0.78-8.29c2.42-1.12,4.86,0.58,6.81,4.8c1.94,4.22,1.68,7.26-0.74,8.38
			C488.94,133.6,486.46,131.82,484.52,127.6z M491.21,124.52c-1.78-3.87-3.8-5.26-5.56-4.45c-1.76,0.81-2.02,3.25-0.23,7.12
			c1.78,3.87,3.84,5.34,5.6,4.53S492.99,128.39,491.21,124.52z"/>
		<path class="st3" d="M723.5,67.4l3.27-0.33l-1.16-11.52l-2.49,0.25l-0.07-0.66c1.12-0.3,1.97-0.7,2.58-1.15l0.78-0.08l1.32,13.06
			l3.03-0.31l0.09,0.85l-7.26,0.73L723.5,67.4z"/>
		<path class="st3" d="M732.56,60.29c-0.4-4.63,0.88-7.31,3.54-7.54s4.38,2.19,4.78,6.82s-0.87,7.4-3.53,7.63
			C734.7,67.43,732.96,64.92,732.56,60.29z M739.9,59.65c-0.37-4.25-1.8-6.24-3.73-6.07s-3,2.37-2.63,6.62s1.81,6.33,3.74,6.16
			C739.21,66.2,740.27,63.9,739.9,59.65z"/>
		<path class="st3" d="M847.78,65.15c4.9-4.33,7.38-6.76,7.55-9.18c0.12-1.73-0.71-3.15-2.82-3.3c-1.27-0.09-2.45,0.6-3.38,1.59
			l-0.59-0.64c1.13-1.1,2.42-1.9,4.12-1.78c2.48,0.18,3.82,1.83,3.65,4.19c-0.2,2.77-2.91,5.25-7.08,9.08
			c0.78,0.01,1.59,0.02,2.36,0.07l4.75,0.34l-0.06,0.86l-8.54-0.61L847.78,65.15z"/>
		<path class="st3" d="M858.89,59.5c0.4-4.63,2.12-7.06,4.78-6.83c2.66,0.23,3.94,2.91,3.55,7.54c-0.4,4.63-2.12,7.15-4.78,6.92
			C859.77,66.91,858.49,64.13,858.89,59.5z M866.23,60.13c0.36-4.25-0.71-6.45-2.64-6.62c-1.93-0.16-3.36,1.82-3.72,6.07
			s0.7,6.54,2.63,6.71S865.87,64.38,866.23,60.13z"/>
		<path class="st3" d="M1108.14,131.11l2.98,1.39l4.89-10.49l-2.27-1.06l0.28-0.6c1.11,0.31,2.05,0.4,2.81,0.33l0.71,0.33
			l-5.55,11.9l2.76,1.29l-0.36,0.77l-6.62-3.08L1108.14,131.11z"/>
		<path class="st3" d="M1119.57,129.64c2.02-4.18,4.5-5.83,6.9-4.67s2.64,4.13,0.62,8.31s-4.54,5.91-6.94,4.75
			C1117.75,136.86,1117.54,133.82,1119.57,129.64z M1126.2,132.84c1.86-3.84,1.64-6.28-0.1-7.12s-3.79,0.5-5.65,4.34
			c-1.86,3.84-1.68,6.36,0.06,7.2C1122.26,138.11,1124.34,136.68,1126.2,132.84z"/>
		<path class="st3" d="M1216.17,192.68c6.42-1.23,9.79-2.05,11.18-4.05c0.99-1.43,0.99-3.08-0.74-4.28
			c-1.05-0.72-2.42-0.73-3.72-0.36l-0.18-0.85c1.53-0.37,3.06-0.4,4.46,0.57c2.04,1.41,2.35,3.52,1,5.46
			c-1.58,2.29-5.18,3.03-10.72,4.19c0.67,0.4,1.36,0.83,1.99,1.26l3.91,2.71l-0.49,0.71l-7.04-4.88L1216.17,192.68z"/>
		<path class="st3" d="M1228.6,193.49c2.7-3.78,5.42-4.99,7.59-3.44s1.91,4.51-0.79,8.29c-2.7,3.78-5.47,5.06-7.64,3.51
			C1225.59,200.31,1225.9,197.27,1228.6,193.49z M1234.59,197.78c2.48-3.47,2.68-5.91,1.1-7.04s-3.82-0.14-6.3,3.33
			c-2.48,3.47-2.73,5.98-1.16,7.11C1229.82,202.3,1232.12,201.25,1234.59,197.78z"/>
		<path class="st3" d="M1404.13,378.49l1.87,2.71l9.53-6.58l-1.42-2.06l0.55-0.38c0.8,0.83,1.57,1.38,2.25,1.71l0.45,0.65
			l-10.81,7.46l1.73,2.5l-0.7,0.48l-4.15-6.01L1404.13,378.49z"/>
		<path class="st3" d="M1414.75,383.01c3.86-2.59,6.83-2.76,8.32-0.54s0.2,4.9-3.66,7.48c-3.86,2.59-6.91,2.81-8.39,0.59
			C1409.52,388.32,1410.89,385.59,1414.75,383.01z M1418.85,389.13c3.54-2.37,4.59-4.59,3.52-6.2c-1.08-1.61-3.53-1.48-7.07,0.89
			c-3.54,2.37-4.67,4.64-3.59,6.25C1412.79,391.68,1415.31,391.5,1418.85,389.13z"/>
		<path class="st3" d="M1467.95,490.19c6.15,2.23,9.46,3.25,11.67,2.25c1.58-0.72,2.43-2.13,1.56-4.05
			c-0.53-1.16-1.7-1.87-3.01-2.21l0.28-0.82c1.5,0.47,2.83,1.22,3.54,2.77c1.03,2.26,0.21,4.23-1.94,5.21
			c-2.53,1.15-6-0.05-11.35-1.89c0.37,0.69,0.75,1.41,1.06,2.11l1.97,4.33l-0.79,0.36l-3.54-7.79L1467.95,490.19z"/>
		<path class="st3" d="M1478.21,497.26c4.26-1.86,7.21-1.51,8.28,0.94c1.07,2.44-0.67,4.85-4.93,6.72c-4.26,1.86-7.29,1.55-8.36-0.9
			C1472.13,501.57,1473.96,499.12,1478.21,497.26z M1481.17,504.01c3.91-1.71,5.33-3.71,4.55-5.48c-0.78-1.77-3.21-2.08-7.11-0.37
			c-3.91,1.71-5.42,3.74-4.64,5.52C1474.75,505.45,1477.26,505.72,1481.17,504.01z"/>
	</g>
</g>
<circle id="Circle_1_" class="st4" cx="800" cy="800" r="698.18"/>
</svg>
